<?xml version="1.0" encoding="UTF-8" standalone="no"?>
<!DOCTYPE svg PUBLIC "-//W3C//DTD SVG 1.1//EN" "http://www.w3.org/Graphics/SVG/1.1/DTD/svg11.dtd">
<svg version="1.1" xmlns="http://www.w3.org/2000/svg" xmlns:xlink="http://www.w3.org/1999/xlink" preserveAspectRatio="xMidYMid meet" viewBox="0 0 640 640" width="640" height="640"><defs><path d="M-350.97 -157.03C-350.97 -156.41 -337.99 -155.8 -322.21 -155.8C-320.31 -155.8 -310.82 -155.8 -293.72 -155.8L-225.02 -251.94L-156.32 -348.09C-150.37 -339.84 -147.06 -335.27 -146.4 -334.35C-141.05 -326.97 -136.47 -319.8 -136.47 -318.77C-136.47 -317.54 -161.16 -282.08 -191.43 -239.85C-221.71 -197.62 -247.16 -161.33 -248.17 -159.28C-249.7 -156 -247.66 -155.8 -220.95 -156.21C-219.03 -156.25 -209.45 -156.45 -192.2 -156.82C-167.01 -192.12 -153.01 -211.74 -150.21 -215.66C-126.81 -247.84 -107.21 -274.9 -106.45 -275.52C-105.69 -276.13 -85.84 -249.48 -61.92 -216.27C-59.06 -212.24 -44.72 -192.08 -18.92 -155.8C-1.52 -155.8 8.15 -155.8 10.08 -155.8C31.96 -155.8 38.58 -156.41 37.56 -158.46C35.78 -162.15 -152.5 -424.96 -154.79 -427.01C-156.07 -427.83 -161.41 -422.29 -167.01 -414.71C-196.78 -374.12 -350.97 -158.05 -350.97 -157.03Z" id="b2zFSR6GEe"></path><path d="M85.14 -156.41C87.43 -157.03 279.78 -424.14 280.04 -427.01C280.04 -427.83 267.06 -428.44 251.54 -428.44C249.63 -428.43 240.04 -428.36 222.79 -428.24C196.99 -392.08 182.66 -371.99 179.79 -367.97C156.13 -334.76 136.03 -307.5 135.26 -307.5C134.5 -307.5 114.4 -334.76 90.74 -367.97C87.85 -372 73.44 -392.16 47.48 -428.44L18.73 -428.44L-10.27 -428.44C-7.68 -424.51 -6.24 -422.32 -5.95 -421.88C-3.66 -418.19 21.79 -382.32 50.54 -342.35C79.29 -302.37 103.21 -268.14 103.71 -266.5C104.22 -264.65 100.41 -256.86 94.81 -249.28C94.15 -248.35 90.84 -243.7 84.89 -235.34C49.32 -285.03 29.55 -312.63 25.6 -318.16C-6.97 -363.66 -38.26 -406.92 -43.86 -414.71C-44.52 -415.62 -47.83 -420.2 -53.78 -428.44C-70.58 -428.44 -79.9 -428.44 -81.77 -428.44C-104.92 -428.44 -109.5 -428.03 -108.74 -425.37C-107.21 -419.63 82.85 -155.8 85.14 -156.41Z" id="b2YV5xGB9L"></path><path d="M110.52 358.59L105.14 358.59L99.85 358.59L95.82 364.4L91.78 370.28L101.11 370.51L110.52 370.73L110.52 378.58L110.52 386.5L117.7 386.5L124.87 386.5L124.87 378.58L124.87 370.73L130.88 370.51L136.88 370.28C138.93 367.34 140.06 365.7 140.29 365.38C142.08 362.66 143.61 360.02 143.61 359.49C143.7 358.81 141.28 358.59 134.28 358.59C133.65 358.59 130.52 358.59 124.87 358.59L124.87 350.67L124.87 342.75L117.7 342.75L110.52 342.75L110.52 350.67L110.52 358.59Z" id="aFjq3Sp04"></path><path d="M-414.25 699.96C-411.99 699.96 -409.72 697.69 -405.2 690.63C-404.8 690.02 -402.8 686.96 -399.2 681.44C-395.68 686.96 -393.73 690.02 -393.34 690.63C-388.68 697.96 -386.68 699.96 -384.15 699.96C-380.02 699.96 -380.42 698.76 -389.21 684.91C-394.4 676.78 -397.33 673.45 -399.2 673.45C-401.07 673.45 -404 676.78 -409.19 684.91C-417.98 698.76 -418.38 699.96 -414.25 699.96Z" id="a3Kl6ZB5qv"></path><path d="M-375.89 700.23C-367.57 699.91 -362.95 699.73 -362.03 699.69C-344.71 699.16 -343.91 698.49 -343.91 686.5C-343.91 674.38 -345.38 673.31 -362.83 673.31C-363.7 673.31 -368.05 673.31 -375.89 673.31L-375.89 686.77L-375.89 700.23Z" id="b24LnB1KgI"></path><path d="M-337.25 699.96C-329.82 699.96 -325.69 699.96 -324.86 699.96C-317.67 699.96 -311.27 699.16 -309.27 698.23C-306.21 696.76 -305.94 695.7 -305.54 686.24C-305.14 676.25 -305.28 675.98 -308.61 674.65C-310.6 673.85 -317.8 673.31 -324.73 673.31C-325.56 673.31 -329.74 673.31 -337.25 673.31L-337.25 686.64L-337.25 699.96Z" id="f4V9ZFtxo3"></path><path d="M160.76 355.74C164.06 355.74 192.33 315.69 192.33 310.98C192.33 309.8 189.97 308.63 186.91 308.63C182.9 308.63 179.37 312.4 172.3 323.94C167.12 332.18 162.17 339.02 161.47 339.25C160.76 339.25 155.81 332.42 150.39 323.94C142.62 311.69 139.56 308.63 134.61 308.63C131.31 308.63 128.72 309.33 128.72 310.27C128.72 314.28 157.93 355.74 160.76 355.74Z" id="aA0Atk7rU"></path><path d="M190.91 355.74C195.86 355.74 198.92 352.68 206.93 340.43C212.59 332.18 217.77 325.12 218.71 325.12C219.42 325.12 224.6 331.95 229.78 340.43C237.56 352.68 240.62 355.74 245.33 355.74C248.63 355.74 251.22 355.03 251.22 354.09C251.22 349.38 221.77 308.63 218.48 308.63C216.36 308.63 208.58 317.81 200.57 330.3C183.14 356.45 183.61 355.74 190.91 355.74Z" id="eUPZB8tsM"></path><path d="M264.65 355.27C269.6 355.98 269.83 355.03 270.54 340.66C270.59 339.64 270.82 334.54 271.24 325.35C283.82 334.54 290.81 339.64 292.21 340.66C303.75 348.91 314.12 355.74 315.3 355.74C316.24 355.74 317.18 345.14 317.18 332.18C317.18 310.27 316.95 308.63 312.47 308.63C308.7 308.63 308 310.51 307.29 323C307.24 323.94 307.01 328.65 306.58 337.13C295.27 328.65 288.99 323.94 287.74 323C277.37 315.22 266.53 308.63 263.47 308.63C258.29 308.63 258.05 309.1 258.76 331.48C259.47 353.15 259.7 354.56 264.65 355.27Z" id="e384EcXy8"></path><path d="M339.09 319.23C339.83 319.23 343.52 319.23 350.16 319.23C350.16 330.11 350.16 336.16 350.16 337.37C350.16 355.51 350.16 355.74 356.05 355.74C361.94 355.74 361.94 355.51 361.94 337.37C361.94 336.16 361.94 330.11 361.94 319.23C367.88 319.23 371.18 319.23 371.84 319.23C380.55 319.23 381.97 318.52 382.67 313.81C383.38 308.63 383.14 308.63 354.88 308.63C326.61 308.63 326.37 308.63 327.08 313.81C327.78 318.52 329.2 319.23 339.09 319.23Z" id="b1hraggCjC"></path><path d="M383.85 355.27C387.39 354.8 392.57 349.38 399.4 338.78C400.09 337.73 403.55 332.47 409.76 323C415.98 332.75 419.44 338.17 420.13 339.25C428.38 352.21 431.91 355.74 436.39 355.74C439.45 355.74 442.04 354.8 442.04 353.62C442.04 348.2 413.53 308.63 409.53 308.63C407.17 308.63 400.34 316.64 392.1 329.36C377.02 352.21 375.84 356.45 383.85 355.27Z" id="a3wTFKAND"></path><path d="M446.75 330.77C446.75 339.02 448.16 347.26 449.81 349.62C453.82 355.03 478.08 357.39 490.1 353.39C498.34 350.79 498.58 350.32 498.58 339.02C498.58 328.18 498.11 327.47 492.69 327.47C487.51 327.47 486.8 328.41 486.8 335.72C486.8 336.27 486.8 339.02 486.8 343.96L472.66 343.96L458.53 343.96L458.53 332.18L458.53 320.64C470.26 320.22 476.78 319.98 478.08 319.93C495.99 319.23 497.4 318.76 498.11 313.81C498.81 308.86 498.34 308.63 478.08 308.63C463.01 308.63 455.7 309.57 451.93 312.4C447.46 315.46 446.75 318.05 446.75 330.77Z" id="j1a5uCd1WP"></path><path d="M510.36 355.74L533.91 355.74L557.47 355.74C557.47 352.21 557.47 350.24 557.47 349.85C557.47 344.2 557 343.96 539.8 343.96C525.67 343.96 522.14 343.26 522.14 340.43C522.14 337.6 525.43 336.9 538.63 336.9C554.65 336.9 555.12 336.66 555.12 331.01C555.12 325.35 554.65 325.12 538.63 325.12C527.08 325.12 522.14 324.17 522.14 322.05C522.14 320.17 527.08 319.23 539.1 319.23C555.12 319.23 556.29 318.76 557 313.81C557.71 308.63 557.24 308.63 534.15 308.63C532.56 308.63 524.63 308.63 510.36 308.63L510.36 332.18L510.36 355.74Z" id="i7hmTmbl9"></path><path d="M160.52 370.01L135.7 370.01L135.7 359.24L160.52 359.24L160.52 359.24L160.52 370.01Z" id="d26pEhDK5Z"></path><path d="M110.95 332.18L124.45 332.18L124.45 349.97L110.95 349.97L110.95 332.18Z" id="ilqkM9unh"></path></defs><g><g><g><use xlink:href="#b2zFSR6GEe" opacity="1" fill="#000000" fill-opacity="1"></use><g><use xlink:href="#b2zFSR6GEe" opacity="1" fill-opacity="0" stroke="#000000" stroke-width="1" stroke-opacity="0"></use></g></g><g><use xlink:href="#b2YV5xGB9L" opacity="1" fill="#000000" fill-opacity="1"></use><g><use xlink:href="#b2YV5xGB9L" opacity="1" fill-opacity="0" stroke="#000000" stroke-width="1" stroke-opacity="0"></use></g></g><g><use xlink:href="#aFjq3Sp04" opacity="1" fill="#000000" fill-opacity="1"></use><g><use xlink:href="#aFjq3Sp04" opacity="1" fill-opacity="0" stroke="#000000" stroke-width="1" stroke-opacity="0"></use></g></g><g><use xlink:href="#a3Kl6ZB5qv" opacity="1" fill="#000000" fill-opacity="1"></use><g><use xlink:href="#a3Kl6ZB5qv" opacity="1" fill-opacity="0" stroke="#000000" stroke-width="1" stroke-opacity="0"></use></g></g><g><use xlink:href="#b24LnB1KgI" opacity="1" fill="#000000" fill-opacity="1"></use><g><use xlink:href="#b24LnB1KgI" opacity="1" fill-opacity="0" stroke="#000000" stroke-width="1" stroke-opacity="0"></use></g></g><g><use xlink:href="#f4V9ZFtxo3" opacity="1" fill="#000000" fill-opacity="1"></use><g><use xlink:href="#f4V9ZFtxo3" opacity="1" fill-opacity="0" stroke="#000000" stroke-width="1" stroke-opacity="0"></use></g></g><g><use xlink:href="#aA0Atk7rU" opacity="1" fill="#000000" fill-opacity="1"></use><g><use xlink:href="#aA0Atk7rU" opacity="1" fill-opacity="0" stroke="#000000" stroke-width="1" stroke-opacity="0"></use></g></g><g><use xlink:href="#eUPZB8tsM" opacity="1" fill="#000000" fill-opacity="1"></use><g><use xlink:href="#eUPZB8tsM" opacity="1" fill-opacity="0" stroke="#000000" stroke-width="1" stroke-opacity="0"></use></g></g><g><use xlink:href="#e384EcXy8" opacity="1" fill="#000000" fill-opacity="1"></use><g><use xlink:href="#e384EcXy8" opacity="1" fill-opacity="0" stroke="#000000" stroke-width="1" stroke-opacity="0"></use></g></g><g><use xlink:href="#b1hraggCjC" opacity="1" fill="#000000" fill-opacity="1"></use><g><use xlink:href="#b1hraggCjC" opacity="1" fill-opacity="0" stroke="#000000" stroke-width="1" stroke-opacity="0"></use></g></g><g><use xlink:href="#a3wTFKAND" opacity="1" fill="#000000" fill-opacity="1"></use><g><use xlink:href="#a3wTFKAND" opacity="1" fill-opacity="0" stroke="#000000" stroke-width="1" stroke-opacity="0"></use></g></g><g><use xlink:href="#j1a5uCd1WP" opacity="1" fill="#000000" fill-opacity="1"></use><g><use xlink:href="#j1a5uCd1WP" opacity="1" fill-opacity="0" stroke="#000000" stroke-width="1" stroke-opacity="0"></use></g></g><g><use xlink:href="#i7hmTmbl9" opacity="1" fill="#000000" fill-opacity="1"></use><g><use xlink:href="#i7hmTmbl9" opacity="1" fill-opacity="0" stroke="#000000" stroke-width="1" stroke-opacity="0"></use></g></g><g><use xlink:href="#d26pEhDK5Z" opacity="1" fill="#000000" fill-opacity="1"></use></g><g><use xlink:href="#ilqkM9unh" opacity="1" fill="#050c02" fill-opacity="1"></use></g></g></g></svg>