<?xml version="1.0" standalone="no"?>
<!DOCTYPE svg PUBLIC "-//W3C//DTD SVG 20010904//EN"
 "http://www.w3.org/TR/2001/REC-SVG-20010904/DTD/svg10.dtd">
<svg version="1.0" xmlns="http://www.w3.org/2000/svg"
 width="620.000000pt" height="620.000000pt" viewBox="0 0 620.000000 620.000000"
 preserveAspectRatio="xMidYMid meet">
<metadata>
Created by potrace 1.16, written by Peter Selinger 2001-2019
</metadata>
<g transform="translate(0.000000,620.000000) scale(0.100000,-0.100000)"
fill="#000000" stroke="none">
<path d="M2583 3883 c-117 -198 -723 -1252 -723 -1257 0 -3 51 -6 113 -6 l112
0 270 469 270 469 39 -67 c21 -36 39 -71 39 -76 0 -6 -97 -179 -216 -385 -119
-206 -219 -383 -223 -393 -6 -16 2 -17 107 -15 l113 3 165 287 c92 157 169
289 172 292 3 3 81 -127 175 -289 l169 -295 114 0 c86 0 112 3 108 13 -7 18
-747 1300 -756 1310 -5 4 -26 -23 -48 -60z"/>
<path d="M2812 3935 c6 -28 753 -1315 762 -1312 9 3 765 1306 766 1320 0 4
-51 7 -112 7 l-113 -1 -169 -294 c-93 -162 -172 -295 -175 -295 -3 0 -82 133
-175 295 l-170 295 -113 0 -114 0 17 -32 c9 -18 109 -193 222 -388 113 -195
207 -362 209 -370 2 -9 -13 -47 -35 -84 l-39 -68 -233 404 c-128 222 -251 433
-273 471 l-39 67 -110 0 c-91 0 -109 -2 -106 -15z"/>
<path d="M4070 3095 l0 -105 -60 0 -59 0 -45 -77 -45 -78 104 -3 105 -3 0
-104 0 -105 80 0 80 0 0 105 0 104 67 3 67 3 38 65 c20 36 37 71 37 78 1 9
-26 12 -104 12 l-105 0 0 105 0 105 -80 0 -80 0 0 -105z"/>
<path d="M1750 2363 c-66 -104 -69 -113 -38 -113 17 0 34 17 68 70 l45 69 44
-69 c35 -55 50 -70 69 -70 31 0 28 9 -38 113 -39 61 -61 86 -75 86 -14 0 -36
-25 -75 -86z"/>
<path d="M2000 2349 l0 -101 104 4 c130 4 136 9 136 99 0 91 -11 99 -142 99
l-98 0 0 -101z"/>
<path d="M2290 2350 l0 -100 93 0 c54 0 102 6 117 13 23 11 25 19 28 90 3 75
2 77 -23 87 -15 6 -69 10 -121 10 l-94 0 0 -100z"/>
<path d="M2690 2443 c0 -17 124 -193 136 -193 14 0 134 170 134 190 0 5 -10
10 -23 10 -17 0 -32 -16 -62 -65 -22 -35 -43 -64 -46 -65 -3 0 -24 29 -47 65
-33 52 -46 65 -67 65 -14 0 -25 -3 -25 -7z"/>
<path d="M2995 2358 c-74 -111 -72 -108 -41 -108 21 0 34 13 68 65 24 35 46
65 50 65 3 0 25 -29 47 -65 33 -52 46 -65 66 -65 14 0 25 3 25 7 0 20 -125
193 -139 193 -9 0 -42 -39 -76 -92z"/>
<path d="M3242 2353 c3 -92 4 -98 25 -101 21 -3 22 1 25 62 l3 65 89 -65 c49
-35 93 -64 98 -64 4 0 8 45 8 100 0 93 -1 100 -20 100 -16 0 -19 -8 -22 -61
l-3 -60 -80 60 c-44 33 -90 61 -103 61 -22 0 -23 -2 -20 -97z"/>
<path d="M3532 2428 c3 -20 9 -23 51 -23 l47 0 0 -77 c0 -77 0 -78 25 -78 25
0 25 1 25 78 l0 77 42 0 c37 0 43 3 46 23 3 22 2 22 -118 22 -120 0 -121 0
-118 -22z"/>
<path d="M3808 2362 c-64 -97 -69 -115 -35 -110 15 2 37 25 66 70 l44 67 44
-69 c35 -55 50 -70 69 -70 13 0 24 4 24 9 0 23 -121 191 -138 191 -10 0 -39
-34 -74 -88z"/>
<path d="M4062 2434 c-19 -13 -22 -24 -22 -78 0 -35 6 -70 13 -80 17 -23 120
-33 171 -16 35 11 36 13 36 61 0 46 -2 49 -25 49 -22 0 -25 -4 -25 -35 l0 -35
-60 0 -60 0 0 50 0 49 83 3 c76 3 82 5 85 26 3 21 1 22 -85 22 -64 0 -95 -4
-111 -16z"/>
<path d="M4310 2350 l0 -100 100 0 100 0 0 25 c0 24 -2 25 -75 25 -60 0 -75 3
-75 15 0 12 14 15 70 15 68 0 70 1 70 25 0 24 -2 25 -70 25 -49 0 -70 4 -70
13 0 8 21 12 72 12 68 0 73 2 76 23 3 22 1 22 -97 22 l-101 0 0 -100z"/>
</g>
</svg>
