<?xml version="1.0" standalone="no"?>
<!DOCTYPE svg PUBLIC "-//W3C//DTD SVG 20010904//EN"
 "http://www.w3.org/TR/2001/REC-SVG-20010904/DTD/svg10.dtd">
<svg version="1.0" xmlns="http://www.w3.org/2000/svg"
 width="512.000000pt" height="512.000000pt" viewBox="0 0 512.000000 512.000000"
 preserveAspectRatio="xMidYMid meet">

<g transform="translate(0.000000,512.000000) scale(0.100000,-0.100000)"
fill="#000000" stroke="none">
<path d="M2397 5105 c-135 -26 -277 -84 -387 -158 -66 -45 -196 -173 -245
-242 -307 -432 -215 -1037 206 -1355 74 -55 248 -150 277 -150 6 0 16 19 22
43 6 23 15 57 20 75 l8 32 -75 35 c-205 94 -362 268 -434 478 -104 306 -29
630 201 857 244 243 613 307 925 160 103 -48 152 -82 232 -161 116 -115 193
-254 228 -412 21 -96 16 -300 -9 -392 -43 -153 -147 -314 -269 -415 -61 -51
-192 -126 -248 -143 -15 -5 -15 -12 -1 -81 10 -51 19 -76 29 -76 7 0 41 11 75
25 216 88 429 300 523 523 60 144 70 198 69 392 0 162 -2 182 -28 264 -106
346 -366 596 -714 687 -103 27 -299 34 -405 14z"/>
<path d="M3012 4680 c-65 -38 -185 -159 -250 -253 l-50 -72 44 -48 c34 -38 47
-46 60 -39 38 21 190 182 229 242 53 83 67 119 63 161 -4 45 -29 48 -96 9z"/>
<path d="M2485 4291 c-109 -67 -128 -195 -42 -288 19 -21 20 -30 13 -145 -19
-340 -87 -651 -173 -797 -45 -74 -147 -175 -225 -219 -143 -82 -447 -145 -810
-168 l-107 -7 -35 31 c-67 58 -149 65 -216 19 -50 -33 -72 -70 -78 -126 -6
-66 2 -93 40 -137 72 -81 184 -86 265 -11 21 19 30 19 140 13 337 -20 651 -86
788 -165 109 -63 221 -189 265 -301 62 -154 103 -363 127 -653 l16 -198 -31
-32 c-42 -43 -60 -112 -44 -166 25 -83 90 -131 177 -131 131 0 216 141 156
259 -11 20 -27 43 -35 50 -21 17 -21 95 -1 289 51 485 140 703 346 843 151
102 430 165 862 195 l98 6 32 -30 c113 -109 297 -26 297 133 0 131 -141 216
-259 156 -20 -11 -43 -27 -50 -35 -17 -21 -95 -21 -289 -1 -283 30 -458 69
-601 136 -113 53 -231 169 -284 280 -78 164 -130 429 -153 782 l-7 108 31 32
c110 114 26 297 -135 297 -29 0 -60 -7 -78 -19z"/>
<path d="M2267 3954 c-140 -125 -236 -263 -240 -347 -2 -37 1 -42 20 -45 13
-2 45 9 73 24 57 31 206 181 264 266 l39 58 -47 49 -46 50 -63 -55z"/>
<path d="M791 3535 c-357 -78 -637 -329 -744 -670 -74 -236 -57 -491 48 -713
58 -122 114 -199 211 -292 122 -116 238 -185 389 -233 465 -146 964 73 1180
517 25 50 45 97 45 103 0 10 -111 43 -142 43 -7 0 -24 -26 -38 -58 -61 -141
-193 -292 -327 -371 -327 -194 -734 -146 -1003 119 -328 323 -332 845 -8 1169
162 162 353 241 583 241 139 0 248 -25 370 -85 165 -80 286 -203 372 -376 l48
-95 72 14 c48 10 73 19 73 29 0 27 -51 137 -97 212 -87 140 -253 291 -398 363
-67 33 -162 65 -247 83 -87 19 -300 18 -387 0z"/>
<path d="M3998 3529 c-148 -22 -276 -70 -401 -152 -109 -71 -174 -132 -248
-230 -54 -71 -149 -246 -149 -274 0 -10 106 -43 137 -43 12 0 26 19 43 58 86
200 272 371 483 443 215 74 422 60 632 -41 217 -104 373 -294 437 -528 28
-105 30 -306 4 -407 -81 -309 -322 -543 -629 -610 -60 -13 -108 -16 -205 -12
-149 5 -215 21 -337 81 -166 82 -287 204 -372 377 l-48 95 -72 -14 c-48 -10
-73 -19 -73 -29 0 -7 11 -41 25 -75 80 -196 273 -402 470 -500 73 -37 190 -74
278 -88 121 -20 322 -8 431 24 348 104 605 375 693 734 26 106 24 332 -5 446
-27 106 -94 254 -156 340 -84 118 -232 244 -366 311 -168 85 -389 121 -572 94z"/>
<path d="M426 3108 c-9 -5 -16 -17 -16 -26 0 -59 150 -228 284 -321 l74 -51
46 46 c25 26 46 48 46 50 0 10 -120 135 -179 186 -96 84 -215 138 -255 116z"/>
<path d="M3568 3094 c-48 -48 114 -246 302 -370 l45 -30 47 48 47 48 -61 68
c-83 92 -168 164 -236 200 -60 32 -131 50 -144 36z"/>
<path d="M1180 2392 c-14 -15 -36 -34 -49 -43 l-24 -15 57 -65 c127 -142 269
-240 353 -243 37 -1 38 0 37 35 -1 44 -40 103 -121 184 -55 55 -207 175 -221
175 -4 -1 -18 -13 -32 -28z"/>
<path d="M4320 2369 c-19 -20 -42 -38 -50 -41 -13 -4 -12 -8 2 -29 30 -45 172
-181 230 -220 112 -76 208 -95 208 -41 0 60 -152 230 -283 319 l-72 48 -35
-36z"/>
<path d="M2158 1891 c-216 -92 -425 -305 -518 -526 -55 -135 -72 -238 -67
-410 4 -125 9 -165 31 -240 179 -597 836 -884 1391 -607 94 47 144 82 227 161
90 84 148 160 203 264 259 491 57 1096 -449 1342 -50 25 -97 45 -103 45 -11 0
-43 -102 -43 -136 0 -14 16 -26 58 -44 200 -86 371 -272 443 -483 74 -215 60
-422 -41 -632 -104 -217 -294 -373 -528 -437 -105 -28 -306 -30 -407 -4 -202
53 -383 181 -492 349 -102 156 -137 287 -131 487 4 113 9 148 32 215 78 228
214 386 424 491 101 51 99 47 81 137 -14 67 -17 68 -111 28z"/>
<path d="M3014 1544 c-72 -35 -207 -171 -281 -281 l-35 -52 43 -50 c32 -37 47
-48 58 -41 35 18 197 188 232 244 43 65 75 155 66 180 -8 20 -43 20 -83 0z"/>
<path d="M2247 803 c-126 -115 -195 -206 -229 -301 -20 -57 -13 -92 20 -92 59
0 228 150 321 284 l51 74 -24 16 c-14 8 -33 29 -42 46 -10 16 -22 30 -26 30
-4 0 -36 -26 -71 -57z"/>
</g>
</svg>
