<svg xmlns="http://www.w3.org/2000/svg" viewBox="0 0 187.08 86.53"><defs><style>.cls-1{fill:#e7e7e8;}.cls-2{fill:#e2dfe1;}.cls-3{fill:#dbd1d8;}.cls-4{fill:#d7d0fa;}.cls-5{fill:#e8c3cc;}.cls-6{fill:#fbcdd6;}.cls-7{fill:#d0d2d2;}.cls-8{fill:#a8aaab;}.cls-9{fill:#c2bcbd;}.cls-10{fill:#dcdcdd;}.cls-11{fill:#b1b3b7;}.cls-12{fill:#fad5e0;}.cls-13{fill:#ccc9c7;}.cls-14{fill:#c5cacd;}.cls-15{fill:#fac4f7;}.cls-16{fill:#cac0fd;}.cls-17{fill:#cac3f0;}.cls-18{fill:#c7c6dd;}.cls-19{fill:#fec2c7;}.cls-20{fill:#d9c3ce;}.cls-21{fill:#ccfacf;}.cls-22{fill:#febbcb;}.cls-23{fill:#feb9c6;}.cls-24{fill:#febad3;}.cls-25{fill:#feb5fd;}.cls-26{fill:#feb8ed;}.cls-27{fill:#feb6cc;}.cls-28{fill:#f1bdfd;}.cls-29{fill:#befdc2;}</style></defs><g id="Layer_2" data-name="Layer 2"><g id="Layer_1-2" data-name="Layer 1"><path class="cls-1" d="M127.51,54.14c2.22-1.12,2.24-2.29,1-4-6.11-8.84-12.13-17.74-18.17-26.63-3.53-5.19-7.06-10.37-10.53-15.59a12.52,12.52,0,0,1-1.55-3.41,3.26,3.26,0,0,1,3.2-4.32,141.16,141.16,0,0,1,15.26.13c1.65.15,3.51,1.94,4.61,3.46,6.42,8.9,12.63,18,18.93,26.93.59.83,1.35,1.54,2.37,2.7,1.77-2.46,3.38-4.65,4.94-6.87q8.28-11.83,16.53-23.69A6,6,0,0,1,169.46.09c4.34.05,8.69-.11,13,.09a5.68,5.68,0,0,1,3.84,1.58c1.22,1.46.83,3.36-.3,5-2.93,4.23-5.8,8.51-8.75,12.72-5.05,7.21-10.17,14.38-15.24,21.58q-14.79,21.07-29.56,42.15c-2.06,2.94-4.34,3.91-6.31,2.64a10,10,0,0,1-2.72-2.64C116.28,73,109.18,62.77,102,52.56,91.86,38.09,81.64,23.65,71.49,9.16a18.7,18.7,0,0,1-2.25-4.35A3.27,3.27,0,0,1,72.38.13c4.87-.08,9.74,0,14.6,0,2.46,0,3.93,1.71,5.18,3.5,6.57,9.43,13.07,18.92,19.61,28.37q7.08,10.22,14.2,20.4A21,21,0,0,0,127.51,54.14Zm-3.83,24.72.46.46h0c.45,1.92.92,3.82,3.14,4.49h1.8a18.67,18.67,0,0,0,2.82-2.64c2.73-3.87,5.33-7.83,8-11.76,1.62-2.38,3.23-4.76,4.87-7.13q6.57-9.48,13.17-19A8.14,8.14,0,0,0,159.58,42c1.38-1.85,2.61-3.81,4-5.66C166.7,32.12,170,28,173,23.71a30.56,30.56,0,0,0,2.37-5.15h0c1.71-.14,2.16-1.27,2.19-2.75h0a9.6,9.6,0,0,0,4.49-6.29h0l.9-1.34h0l.9-1.36a2.57,2.57,0,0,1,.06-.4c2-.46,1.46-2.08,1.14-3.18-.27-.9-.91-2.36-2.52-1.36l-6.28-.05c-1.11-1-4.8-1.19-5.76-.29-.13.12-.09.42-.13.64l-1.76.11a8.66,8.66,0,0,0-.81-.58c-1.26,1.39-2.47,2.81-3.69,4.24h0l-.9,1.34h0l-.9,1.34h0L161,10.44h0l-.9,1.34h0l-.89,1.34h0l-1.33,1.81h0l-.9,1.34h0L156,17.63l-.44.47-.91,1.34h0l-.9,1.34h0l-.9,1.34h0l-.9,1.34h0l-1.33,1.81h0l-.9,1.33h0l-.9,1.34h0l-1.32,1.81h0c-.61.89-1.21,1.79-1.81,2.68h0l-1.33,1.81h0c-1.76,1.24-2.9.42-3.92-1.1-1.54-2.28-3.1-4.54-4.74-6.73-.9-1.21-2-2.28-3-3.41a2.32,2.32,0,0,1-.06-.38l-.86-1c0-.12,0-.25-.05-.38l-1.27-1.43a2.63,2.63,0,0,1-.06-.39l-.85-1h0l-.91-1.34a2.47,2.47,0,0,1-.05-.38c-.73-.93-1.46-1.85-2.18-2.78h0l-.91-1.34a2.5,2.5,0,0,1-.06-.38l-1.27-1.44a2.32,2.32,0,0,1-.06-.38l-.85-1h0l-.91-1.34a1.73,1.73,0,0,1,0-.38l-2.19-2.78a1.58,1.58,0,0,1,0-.38c-.82-2.29-2.12-3.21-4-2.8H102.56l-1.78,0C98.69,3.71,99,6,101.68,7.74a1.64,1.64,0,0,1,0,.38l.86,1,.9,1.34.91,1.36c0,.12,0,.25,0,.37a3.54,3.54,0,0,0,.29,1.05q6.34,9.49,12.76,18.94c.26.38.82.55,1.25.82l.9,1.35c1.45,2.46,2.88,4.93,4.39,7.35a5.91,5.91,0,0,0,1.45,1.2,17.34,17.34,0,0,0,1.11,2.61c1.06,1.7,2.33,3.28,3.36,5s.49,3.07-.6,4.54-2.17,1.07-3.4.43a1.81,1.81,0,0,1,0-.4l-.87-1q-1.57-2.46-3.17-4.9l-.87-1-2-1.36h0l-.24-1.79-.9-1.35a.92.92,0,0,1,0-.37l-.88-1-.46-.85c-1.44-2.21-2.87-4.43-4.33-6.63,0,0-.37.09-.57.15a.56.56,0,0,1-.36,0c-1.41-2.39-2.76-4.81-4.26-7.14a10.14,10.14,0,0,0-2-1.84l-2.31-3.54-.9-1.39-1.84-1.29h0L99,18.54h0l-.45-.67h0l0-1.14L97.15,14.1,96,13.85l-.61-2.06-.85-.94h0L93.61,9.5,91.39,6.36,90.47,5l-.93-.64-.24-.67L88.2,2.31l-.91-.42H73.92c-1,0-2-.12-1.92,1.4v.9c-1.88.77-.62,1.89-.12,2.62Q79.62,18.06,87.53,29.2a51.79,51.79,0,0,0,4.25,4.66h0l.46.46h0l.45.91h0l.46.46h0l.46.59v.13l0,.66a3.71,3.71,0,0,0,.32,1.28c1.91,2.74,3.84,5.47,5.82,8.16,1,1.41,2.2,2.73,3.3,4.09,1.17,1.85,2.3,3.73,3.54,5.53.27.39,1,.49,1.44.73h0v.92c1.92,2.9,3.8,5.82,5.8,8.67a35.63,35.63,0,0,0,2.72,3.06l.49,0h0c.15,3.23,2.81,5,4.31,7.48,0,0,.48-.17.73-.26a.88.88,0,0,1,.34.26l.47.63h0l.46.91h0l.46.46Z"/><path class="cls-2" d="M54,6.85a23,23,0,0,1,2.23-3.72C58,1.22,59.6,1.4,61.06,3.46c1.68,2.38,3.3,4.8,5,7.2q4.8,6.93,9.62,13.84L86.34,39.91q8.4,12,16.79,24.06c4,5.82,8.11,11.63,12,17.54a4.64,4.64,0,0,1,.34,3.5c-.16.56-1.68,1-2.59,1-4.42.1-8.85-.1-13.25.1a5.38,5.38,0,0,1-5.06-2.59Q84.25,68.88,73.9,54.26c-.37-.53-.81-1-1.45-1.81-1.91,2.63-3.67,5-5.35,7.42-5.41,7.78-10.83,15.57-16.16,23.41a6.69,6.69,0,0,1-6,3.22c-3.82,0-7.64.13-11.45-.08-1.35-.07-3.21-.61-3.83-1.57s0-2.83.73-3.89c5.65-8.43,11.45-16.77,17.22-25.13q6.61-9.6,13.24-19.17c.5-.73-1-4-2.25-4.71-1.49-.91-1.92.42-2.54,1.31q-13.9,20.07-27.8,40.15c-2,2.88-4,5.78-5.78,8.78-1.63,2.7-3.8,4.32-7,4.26C11,86.36,6.4,86.26,1.86,86-.06,85.87-.63,83.4.79,81.25,2.56,78.57,4.48,76,6.33,73.37q9-12.8,18.09-25.6,6-8.4,12-16.77a7.48,7.48,0,0,1,1.46-1.2l0,0,0,1.32-.45.45-.45.9-.45.45-.88,1.36h0l-.44.44h0l-.44.89h0l-.44.44h0l-.89,1.34h0l-.45.89h0l-.45.45h0l-.45.45h0l-.45.89h0l-.45.44h0l-.45.89h0l-.44.44h0l-.45.89h0l-.44.44h0l-.89,1.34h0L27.53,46h0l-.44.44h0l-.89,1.34h0c-.29.45-.59.9-.89,1.34h0l-.44.49-6.28,9,0,.88-.88.47q-2.25,3.35-4.49,6.7a8.2,8.2,0,0,0-4.05,5.89h0c-.28.08-.68.06-.81.25C6,75.94,3.82,79.07,1.65,82.25c-.15.21.16.75.26,1.13l1.34.89c.24.15.48.42.73.43,4.3.16,8.61.3,12.91.37.4,0,.8-.52,1.21-.8h.34a7.35,7.35,0,0,0,1.86-1.39q7.22-10.35,14.31-20.8c1.34-2,2.47-4.12,3.7-6.18h0l1.34-1.35c1.27-1.94,2.5-3.9,3.8-5.81Q50.08,39,56.74,29.36c2.52.23,5.4,4.33,5.39,7.64l-.43.9-.93,1.8h0a6.82,6.82,0,0,0-1.46,1.17c-3.61,5.2-7.2,10.4-10.72,15.65-1,1.51-1.77,3.19-2.64,4.8h0l-.89,1.35h0l-4,5.84h0l-.9,1.34h0L37.88,73l-.47.89-.45.49h0l-.91,1.36h0l-.91,1.36h0c-1.39,1.73-2.8,3.45-4.13,5.22-.17.23.05.75.08,1.13a1.71,1.71,0,0,1,0,.32l.48.55,0,0c.61.3,1.22.85,1.84.86q6.21.11,12.43,0c.51,0,1-.55,1.53-.85a1.07,1.07,0,0,1,.25,0l.59-.47h0a12.28,12.28,0,0,0,5-6.74l7.21-10.4A27.44,27.44,0,0,0,62.81,64c2.67-3.86,5.25-7.78,7.86-11.67l1.7-2.23,1.31,1.31a5.81,5.81,0,0,0,.44,1q9.82,13.9,19.69,27.78a38.87,38.87,0,0,0,3.38,3.67l0,0,.52.48h.4a5.74,5.74,0,0,0,1.88.83c3.89.07,7.78.08,11.67,0a6.8,6.8,0,0,0,2.18-.85c-.46-1.36-.91-2.71-1.36-4.06l-2.69-3.57h0l-.9-1.35h0l-1.35-1.8h0l-.45-.9h0l-.45-.47-3.16-5-.89-.87h0c-.3-.46-.6-.91-.91-1.36h0c-.28-.47-.56-.94-.85-1.41l-.92-1.33-.45-.44-.87-1.38L97.68,59l-.91-1.35c-.75-1-1.5-2.09-2.26-3.13l-.88-1.37-.91-1.34c-.45-.6-.91-1.19-1.37-1.78-.3-.45-.6-.9-.89-1.36L88.63,46h0l-.92-1.41-.89-2.17L85.94,42v-.88L85,39.71l-.43-.45-1.36-1.35h0l-.47-.9-.44-.88-.89-.92h0L80.1,33.41h0l-.47-.89-.44-.44-.84-1.39-.5,0h0l-.46-.91h0L77,29.35h0l-.46-.46v0L76.05,28h0l-.46-.46h0l-.46-.9h0l-.46-.45h0l-.46-.46h0l-.45-.9h0l-.45-.46h0l-.45-.9h0L72.46,23h0l-.45-.9h0l-.45-.45h0l-.45-.46h0l-.45-.9h0l-.45-.46h0l-.9-1.36h0l-.45-.9h0l-.44-.44h0L68,16.74h0l-.45-.9h0l-.45-.45h0l-1.35-2.25h0l-.44-.44h0l-.45-.45h0l-.45-.9h0l-.44-.45h0l0-1.33L61.68,6.85h0L60.78,5.5h0a1.94,1.94,0,0,0-2.25-2.24h-.43l-.91.9h0l-.9.45h0l-.46.45-.44.9-.45.45h0l-.88.46Z"/><path class="cls-2" d="M38.76,28.45c1.53-2.49,3-5,4.62-7.46a30.57,30.57,0,0,1,3-3.34l0,0c-.16.6-.32,1.19-.47,1.78l-.45.45-.45.9h0l-.46.45-.44.88-.45.47h0c-.16.3-.31.6-.46.9l-.45.44-.45.91-.45.45-.45.44-.45.91-.45.44-.45.9-1.32.48Z"/><path class="cls-1" d="M55.39,6l.44-.9.46,0c.23,1.41-1.46,4-3.16,4.92l.5-1.37L54,7.81l0-.06.9-1.35h0Z"/><path class="cls-2" d="M46.4,17.65l3.15-4.5h0V14.5h0l-.45.45h0l-.45.45h0l-.9,1.36-.89.88-.44,0Z"/><path class="cls-2" d="M49.55,13.15,51.8,10c0,.29,0,.59,0,.88h0l-.45.9h0l-.45.45-.88.89h-.46Z"/><path class="cls-3" d="M51.79,10.9c0-.29,0-.59,0-.88v0l.89-1.32.93-.06c-.16.45-.33.91-.5,1.37h0Z"/><path class="cls-2" d="M37.85,29.8l.91-1.35,0,0-.9,1.35Z"/><path class="cls-2" d="M52.7,8.68,51.81,10Z"/><path class="cls-2" d="M54,7.81l-.65-.62L54,6.85h0c0,.3,0,.59,0,.89Z"/><path class="cls-4" d="M122.32,76.89a.88.88,0,0,0-.34-.26l-5-7.22h0l-.43-.53-8.09-11.66-.48-.42h0l-.93-2.2c0-.32,0-.64,0-1L109.75,55c.76,1.2,1.51,2.4,2.26,3.6l4,4a3.94,3.94,0,0,0,.27,1.29c3.31,5,6.62,10,10,15,1.15,1.67,2.08,1.62,3.31,0,1.93-2.64,3.86-5.29,5.64-8,1.63-2.52,3.07-5.18,4.59-7.78L143,60.86l-1.32,3.64L139,69.38q-3.3,4.75-6.59,9.52c-1.12,1.63-2.23,3.28-3.35,4.92h-1.8c-1-1.5-2.09-3-3.14-4.49h0l-.46-.46h0l-.46-.46h0l-.46-.91h0Z"/><path class="cls-5" d="M98.53,17.86h0l.45.67h0l.9,1.35h0l4.93,6.79.45,1.32.45.46,0,.84L107.05,33l-2.69-1.31V46l-2.25-.89-1.8-2.26-.89-.9c0-.15,0-.3,0-.45L98.07,38.8c.45-.74,1.26-1.47,1.29-2.23.13-3.76,0-7.53.08-11.29A8.38,8.38,0,0,0,97.17,19l-1.29-4.09C96.76,15.9,97.65,16.88,98.53,17.86Z"/><path class="cls-6" d="M95.88,14.91,97.17,19c-.34-.24-.8-.41-1-.74-2.23-3.34-4.34-6.76-6.65-10-.86-1.21-2-2.73-3.31-3a40.13,40.13,0,0,0-8.43-.58c-2.54,0-3,1-1.47,3.17,4.34,6,8.8,12,13.09,18.07,2.14,3,4,6.22,6,9.33-.38-.19-.89-.28-1.13-.59-1.42-1.81-2.72-3.71-4.17-5.5-1.31-1.62-2.76-3.13-4.15-4.69h0l-1.35-1.81h0l-1.81-2.7h0l-.91-1.35h0l-1.34-1.81h0l-.92-1.35L72,4.19v-.9c4.58-.16,9.15-.37,13.72-.43a10.28,10.28,0,0,1,2.85.84h.54l.19,0,.24.67c0,.45-.09,1,.13,1.34,1.73,2.64,3.52,5.24,5.29,7.86l.9,1.35Z"/><path class="cls-3" d="M107.05,33l-1.32-3.65a4.6,4.6,0,0,1,1.2.84c1.27,1.66,2.46,3.37,3.68,5.07l4.55,6.3h0L119,46.9h0c2.69,3.9,5.36,7.81,8.1,11.67.19.27,1.18.38,1.31.2.92-1.2,1.71-2.51,2.55-3.78l.37-.86.46-.6,0-.16c1.63-.75,1.66-1.94.92-3.34l.89-1.32,1.8.9Q134.68,53,134,56.35a17.92,17.92,0,0,0-2.38,2.12c-1.94,2.43-4.66,2.69-6.86.55-.63-.62-1.32-1.18-2-1.77l-3.6-5.4a12.74,12.74,0,0,0-.85-2C114.6,44.23,110.82,38.6,107.05,33Z"/><path class="cls-7" d="M175.38,18.56A30.56,30.56,0,0,1,173,23.71c-3,4.29-6.31,8.41-9.44,12.63-1.38,1.85-2.61,3.81-4,5.66a8.14,8.14,0,0,1-1.67,1.33c-.43.16-1,.18-1.25.49C154.8,46.18,153,48.6,151.19,51l-1-1.38a13.17,13.17,0,0,1,1-1.95q6.45-8.73,12.95-17.41l1.76,0a3.23,3.23,0,0,1,0,.44,2.33,2.33,0,0,1-.17.26l.25-.18.4-1h0l.46-.46h0l.9-1.36h0l.91-1.36h0c.3-.46.61-.91.91-1.36h0l1.35-1.81h0l.9-1.35h0a18.13,18.13,0,0,0,1.59-1.31C174.06,20.11,174.7,19.32,175.38,18.56ZM164.12,33.4l-.45.44-.45.91-.46.43-.18.25.23-.2.43-.47.46-.89c.14-.16.29-.31.43-.46a.68.68,0,0,0,.17-.09s0-.08,0-.13Zm1.22-1.28c-.05-.12-.08-.31-.16-.34s-.23.08-.35.13l.2.44Zm-3.11,4.42c0-.06,0-.13-.1-.16s-.1.06-.15.09l.18.24Z"/><path class="cls-8" d="M155.59,18.1c.15-.16.29-.32.44-.47.29-.45.59-.9.89-1.35h0l.9-1.34h0l1.33-1.81h0c.3-.44.6-.89.89-1.34h0l.9-1.34h0l1.32-1.81h0l.9-1.34h0l.9-1.34h0l2.24-1.79c-1.14,1.95-2.19,4-3.44,5.85-3.62,5.42-7.32,10.78-11,16.17-.49.56-1,1.09-1.44,1.69-2.12,2.9-4.16,5.85-6.33,8.71-1.31,1.71-2.41,1.49-3.4-.47,1.75.51,3.11.22,3.58-1.81h0l1.33-1.81h0c.6-.89,1.2-1.79,1.81-2.68h0L148.81,28h0l.9-1.34h0l.9-1.33h0c.45-.6.89-1.2,1.33-1.81h0l.9-1.34h0l.9-1.34h0l.9-1.34h0Z"/><path class="cls-9" d="M72,4.19l7.61,11.22.92,1.35h0l1.34,1.81h0l.91,1.35h0l1.81,2.7h0l1.35,1.81h0c.52.95,1,1.93,1.57,2.85,1.4,2.21,2.86,4.39,4.29,6.59a51.79,51.79,0,0,1-4.25-4.66Q79.6,18.09,71.88,6.81C71.38,6.08,70.12,5,72,4.19Z"/><path class="cls-10" d="M118.72,33c-.42-.27-1-.44-1.24-.82q-6.42-9.43-12.76-18.94a3.54,3.54,0,0,1-.29-1.05L107,14.11l.49-.06h0l.46.46v0l.46.91h0l.46.46v0l.45.91h0l.65.46a1.7,1.7,0,0,1,.27.33l0,.56h0l.45.45h0l.9,1.36h0l.89,1.35h0l.45.45h0l.45.9h0l1.34,1.8h0c-.19,1.42.17,2.48,1.8,2.69h0l.89,1.34h0l.41,1.8.91,1.37h0l.06,1.31Z"/><path class="cls-11" d="M151.19,51c1.81-2.4,3.61-4.82,5.47-7.18.23-.31.82-.33,1.25-.49q-6.58,9.48-13.17,19c-1.64,2.37-3.25,4.75-4.87,7.13l-.86,0,2.68-4.88Z"/><path class="cls-8" d="M132.61,22.67a2.32,2.32,0,0,0,.06.38c.15.9.3,1.8.46,2.71q-4.35-6.07-8.71-12.15c-2.16-3-4.34-6-6.52-9l-.06-.88,2.19,1a1.58,1.58,0,0,0,0,.38l2.19,2.78a1.73,1.73,0,0,0,0,.38c.31.44.61.89.91,1.34h0l.85,1a2.32,2.32,0,0,0,.06.38l1.27,1.44a2.5,2.5,0,0,0,.06.38l.91,1.34h0c.72.93,1.45,1.85,2.18,2.78a2.47,2.47,0,0,0,.05.38l.91,1.34h0l.85,1a2.63,2.63,0,0,0,.06.39l1.27,1.43a2.32,2.32,0,0,0,.06.38Z"/><path class="cls-12" d="M91.78,33.86c-1.43-2.2-2.89-4.38-4.29-6.59-.58-.92-1-1.9-1.57-2.85,1.39,1.56,2.84,3.07,4.15,4.69,1.45,1.79,2.75,3.69,4.17,5.5.24.31.75.4,1.13.59,0,.15,0,.3,0,.45L96.72,37l1.35,1.79c.45.9.89,1.81,1.34,2.71l-2.25-.89h0l-1.35-1.8L94.11,37l-.53-.61v-.14l-.46-.58h0l-.46-.46h0l-.45-.91h0l-.46-.46Z"/><path class="cls-7" d="M133.13,25.76c-.16-.91-.31-1.81-.46-2.71,1,1.13,2.11,2.2,3,3.41,1.64,2.19,3.2,4.45,4.74,6.73,1,1.52,2.16,2.34,3.92,1.1-.47,2-1.83,2.32-3.58,1.81h0l-.46-.46h0l-.46-.47v0l-.46-.91h0l-.46-.46h0l-.46-.46h0l-.91-1.36h0l-.46-.91h0l-.45-.46h0l-.46-.46v0l-.45-.91h0l-.46-.45h0l-.9-1.36h0l-.9-1.35h0l-.45-.46Z"/><path class="cls-10" d="M131.76,53.37l0,.16-.46.6-.38.86c-.5.41-1,.79-1.5,1.23-1.69,1.6-2.48,1.43-3.5-.76,1.23.64,2.31,1,3.4-.43s1.56-2.94.6-4.54-2.3-3.31-3.36-5a17.34,17.34,0,0,1-1.11-2.61l0,0,.85.08c1.51,2.38,3,4.77,4.54,7.15l.81,2.73Z"/><path class="cls-11" d="M125.94,55.46c1,2.19,1.81,2.36,3.5.76.47-.44,1-.82,1.5-1.23-.83,1.27-1.62,2.58-2.54,3.78-.13.18-1.12.07-1.31-.2-2.74-3.86-5.41-7.77-8.1-11.67l2,1.36.87,1q1.59,2.45,3.17,4.9l.87,1A1.81,1.81,0,0,0,125.94,55.46Z"/><path class="cls-8" d="M175.38,18.56c-.68.76-1.32,1.55-2,2.27a18.13,18.13,0,0,1-1.59,1.31L183.91,4.49c0,.64,0,1.28,0,1.92a2.57,2.57,0,0,0-.06.4L183,8.17h0l-.9,1.34h0l-4.5,6.29h0l-2.19,2.75Z"/><path class="cls-9" d="M88.57,3.7a10.28,10.28,0,0,0-2.85-.84c-4.57.06-9.14.27-13.72.43-.13-1.52.94-1.4,1.92-1.4H87.29l.91.42,1.1,1.38-.19,0Z"/><path class="cls-13" d="M94.11,37l1.7,1.83,1.35,1.8h0c.63,1.09,1.22,2.19,1.89,3.25,1.3,2.05,2.65,4.08,4,6.12l0,.57c-1.1-1.36-2.26-2.68-3.3-4.09-2-2.69-3.91-5.42-5.82-8.16A3.71,3.71,0,0,1,93.54,37Z"/><path class="cls-7" d="M139,69.38l.86,0c-2.65,3.93-5.25,7.89-8,11.76a18.67,18.67,0,0,1-2.82,2.64c1.12-1.64,2.23-3.29,3.35-4.92Q135.71,74.13,139,69.38Z"/><path class="cls-14" d="M108.43,57.23l8.09,11.66-.06.57a35.63,35.63,0,0,1-2.72-3.06c-2-2.85-3.88-5.77-5.8-8.67Z"/><path class="cls-9" d="M110.61,35.21c-1.22-1.7-2.41-3.41-3.68-5.07a4.6,4.6,0,0,0-1.2-.84c0-.28,0-.56,0-.84l-.45-.46-.45-1.32.12-.57a10.14,10.14,0,0,1,2,1.84c1.5,2.33,2.85,4.75,4.26,7.14Z"/><path class="cls-11" d="M107,14.11l-2.59-1.95c0-.12,0-.25,0-.37l-.91-1.36-.9-1.34-.86-1a1.64,1.64,0,0,0,0-.38,9.25,9.25,0,0,1-.94-2.15,5,5,0,0,1,.39-1.83c.51,1,1,2,1.53,2.9,1.45,2.3,3,4.56,4.43,6.83Z"/><path class="cls-11" d="M102.56,1.87h13.49l.9.93-1.34.05-1.37,0L102.12,2.8Z"/><path class="cls-10" d="M125.47,42.87a5.91,5.91,0,0,1-1.45-1.2c-1.51-2.42-2.94-4.89-4.39-7.35l0,0,.88.44,2.16,2.77.94,1.35h0l.89,1.39a2.32,2.32,0,0,0,0,.38l.86,1a1.65,1.65,0,0,0,0,.38l0,.87Z"/><path class="cls-8" d="M95,13.56c-1.77-2.62-3.56-5.22-5.29-7.86-.22-.33-.09-.89-.13-1.34l.93.64.92,1.36L93.61,9.5c.31.45.61.9.91,1.36h0c.28.32.57.63.85.94.2.69.41,1.37.61,2.06a2.73,2.73,0,0,1-.23.25Z"/><path class="cls-7" d="M177.57,15.8l4.5-6.29A9.65,9.65,0,0,1,177.57,15.8Z"/><path class="cls-9" d="M116.94,69.41l5,7.22c-.25.09-.71.31-.73.26C119.75,74.44,117.09,72.64,116.94,69.41Z"/><path class="cls-9" d="M103,50.56c0-.19,0-.38,0-.57,1.34,1.54,2.67,3.09,4,4.63l.93,2.2c-.49-.24-1.17-.34-1.44-.73C105.28,54.29,104.15,52.41,103,50.56Z"/><path class="cls-7" d="M170.38,2.17c0-.22,0-.52.13-.64,1-.9,4.65-.7,5.76.29l0,.48Z"/><path class="cls-10" d="M111.56,35.09c.2-.06.53-.2.57-.15,1.46,2.2,2.89,4.42,4.33,6.63l-1.31-.07h0a12.74,12.74,0,0,0-.78-2C113.49,38,112.51,36.57,111.56,35.09Z"/><path class="cls-8" d="M111.56,35.09c1,1.48,1.93,2.93,2.82,4.44a12.74,12.74,0,0,1,.78,2l-4.55-6.3.59-.12A.56.56,0,0,0,111.56,35.09Z"/><path class="cls-8" d="M104.93,26.11l-.12.57-4.93-6.79,1.84,1.29.9,1.39Z"/><path class="cls-8" d="M170.38,2.17l5.85.13a26.88,26.88,0,0,1,3.36.08,14.37,14.37,0,0,1,2.48.75c-3.64-.11-7.29-.19-10.93-.34a20,20,0,0,1-2.53-.44V2.28Z"/><path class="cls-8" d="M115.15,41.5l1.31.07c.15.29.3.57.46.85s.58.65.88,1a.92.92,0,0,0,0,.37l.9,1.35L119,46.9Z"/><path class="cls-7" d="M183.93,6.41c0-.64,0-1.28,0-1.92l0-1.27-1.33-1.35c1.61-1,2.25.46,2.52,1.36C185.39,4.33,185.92,6,183.93,6.41Z"/><path class="cls-10" d="M101.13,3.76a5,5,0,0,0-.39,1.83,9.25,9.25,0,0,0,.94,2.15c-2.65-1.78-3-4-.9-5.84l.88,1.35Z"/><path class="cls-7" d="M166.36,4.15l-2.24,1.79c1.22-1.43,2.43-2.85,3.69-4.24a8.66,8.66,0,0,1,.81.58v.07Z"/><path class="cls-7" d="M117,2.8l-.9-.93c1.86-.41,3.16.51,4,2.8l-2.19-1v0l-.46-.48Z"/><path class="cls-9" d="M182.55,1.87l1.33,1.35-1.81-.09a14.37,14.37,0,0,0-2.48-.75,26.88,26.88,0,0,0-3.36-.08c0-.16,0-.32,0-.48Z"/><path class="cls-11" d="M124.13,79.31c1.05,1.5,2.1,3,3.14,4.49C125.05,83.13,124.58,81.23,124.13,79.31Z"/><path class="cls-8" d="M98.53,17.86c-.88-1-1.77-2-2.65-2.95h0c0-.27-.07-.54-.1-.81a2.73,2.73,0,0,0,.23-.25l1.16.25,1.43,2.62Z"/><path class="cls-7" d="M175.38,18.56l2.19-2.75C177.54,17.29,177.09,18.42,175.38,18.56Z"/><path class="cls-7" d="M128.56,16.83c-.73-.93-1.46-1.85-2.18-2.78C127.1,15,127.83,15.9,128.56,16.83Z"/><path class="cls-7" d="M122.27,7.83l-2.19-2.78Z"/><path class="cls-7" d="M147.49,29.79c-.61.89-1.21,1.79-1.81,2.68C146.28,31.58,146.88,30.68,147.49,29.79Z"/><path class="cls-7" d="M101.66,3.25l-.88-1.35,1.78,0c-.15.31-.3.62-.44.93h0l-.43.41Z"/><path class="cls-9" d="M98.58,16.72,97.15,14.1Z"/><path class="cls-7" d="M162.3,8.63,161,10.44Z"/><path class="cls-7" d="M145.67,32.48l-1.33,1.81Z"/><path class="cls-7" d="M159.16,13.13l-1.33,1.81Z"/><path class="cls-7" d="M148.81,28l-1.32,1.81Z"/><path class="cls-7" d="M152,23.47c-.44.61-.88,1.21-1.33,1.81C151.08,24.68,151.52,24.08,152,23.47Z"/><path class="cls-7" d="M131.7,21.33l-1.27-1.43Z"/><path class="cls-7" d="M125.41,12.33l-1.27-1.44Z"/><path class="cls-7" d="M182.07,9.51l.9-1.34Z"/><path class="cls-7" d="M183,8.17l.9-1.36Z"/><path class="cls-7" d="M160.06,11.78c-.29.45-.59.9-.89,1.34C159.47,12.68,159.77,12.23,160.06,11.78Z"/><path class="cls-9" d="M91.39,6.36,90.47,5Z"/><path class="cls-8" d="M99.88,19.89,99,18.54Z"/><path class="cls-7" d="M164.12,5.94l-.9,1.34Z"/><path class="cls-7" d="M163.21,7.28l-.9,1.34Z"/><path class="cls-7" d="M150.63,25.29l-.9,1.33Z"/><path class="cls-7" d="M123.23,9.55c-.3-.45-.6-.9-.91-1.34C122.63,8.65,122.93,9.1,123.23,9.55Z"/><path class="cls-9" d="M94.52,10.86c-.3-.46-.6-.91-.91-1.36C93.92,10,94.22,10.4,94.52,10.86Z"/><path class="cls-10" d="M103.48,10.43l.91,1.36Z"/><path class="cls-7" d="M161,10.44l-.9,1.34Z"/><path class="cls-7" d="M154.68,19.44l-.9,1.34Z"/><path class="cls-7" d="M126.38,14.05l-.91-1.34Z"/><path class="cls-7" d="M153.77,20.78l-.9,1.34Z"/><path class="cls-9" d="M102.62,22.57l-.9-1.39Z"/><path class="cls-7" d="M152.87,22.13l-.9,1.34Z"/><path class="cls-7" d="M157.83,14.94l-.9,1.34Z"/><path class="cls-10" d="M118.74,45.11l-.9-1.35Z"/><path class="cls-7" d="M156.92,16.28c-.3.45-.6.9-.89,1.35C156.32,17.18,156.62,16.73,156.92,16.28Z"/><path class="cls-10" d="M119.63,34.32,118.72,33l0,0,.91,1.35Z"/><path class="cls-7" d="M149.72,26.63l-.9,1.34Z"/><path class="cls-7" d="M129.52,18.55l-.91-1.34Z"/><path class="cls-7" d="M155.59,18.1l-.91,1.34Z"/><path class="cls-10" d="M88.2,2.31l-.91-.42Z"/><path class="cls-10" d="M117.8,43.39c-.3-.32-.59-.65-.88-1C117.21,42.74,117.5,43.07,117.8,43.39Z"/><path class="cls-10" d="M121.86,49.21l-.87-1Z"/><path class="cls-10" d="M101.72,8.12l.86,1Z"/><path class="cls-7" d="M124.08,10.51l-.85-1Z"/><path class="cls-7" d="M132.61,22.67l-.85-1Z"/><path class="cls-10" d="M125.9,55.06l-.87-1Z"/><path class="cls-9" d="M95.38,11.79c-.28-.31-.57-.62-.85-.94C94.81,11.17,95.1,11.48,95.38,11.79Z"/><path class="cls-7" d="M130.37,19.51l-.85-1Z"/><path class="cls-9" d="M108.43,57.23l-.49.5c0-.31,0-.62,0-.92Z"/><path class="cls-9" d="M92.23,34.3l.45.91Z"/><path class="cls-11" d="M122.78,77.51l.46.91Z"/><path class="cls-9" d="M94.11,37l-.57.05c0-.22,0-.44,0-.66Z"/><path class="cls-9" d="M92.68,35.2l.46.46Z"/><path class="cls-9" d="M93.13,35.65l.46.58Z"/><path class="cls-9" d="M91.78,33.85l.46.46Z"/><path class="cls-8" d="M99,18.54l-.45-.67Z"/><path class="cls-9" d="M116.46,69.46l.06-.57.43.53Z"/><path class="cls-11" d="M122.32,76.89l.47.63Z"/><path class="cls-11" d="M123.23,78.41l.46.46Z"/><path class="cls-11" d="M123.68,78.86l.46.46Z"/><path class="cls-7" d="M128.62,83.81h0Z"/><path class="cls-6" d="M53.13,10c1.7-.87,3.39-3.51,3.16-4.92V4.6H59l1.8.9h0l.89,1.34h0l1.38,2.72.87,1.32h0l.44.45h0l.45.9h0l.45.45h0l.44.44h0l1.35,2.25h0l.45.45h0l.45.9h0l.45.45h0l.44.44h0l.45.9h0l.9,1.36h0l.45.46h0l.45.9h0l.45.46h0l.45.45h0l.45.9h0l.45.46h0l.45.9h0l.45.46h0l.45.9h0l.46.46h0l.46.45h0l.46.9h0l.46.46h0l.46.91v0l.46.46h0l.46.45h0l.46.91h0l.45.52.89.85.44.44.47.89h0c.45.6.89,1.2,1.34,1.79h0l.89.92.44.88.47.9h0l1.36,1.35.43.45.9,1.37V42l.89.47c.3.73.6,1.45.89,2.17L88.64,46h0c.16.61.33,1.22.49,1.83L85.94,46a19.81,19.81,0,0,0-1.11-2.15q-5.46-8-11-16c-2.07-3-4.23-5.9-6.34-8.85-2.39-3.59-4.75-7.2-7.18-10.76-1.66-2.42-2.43-2.39-4.07,0-3.2,4.6-6.35,9.23-9.63,13.76a50.93,50.93,0,0,1-3.83,4.23l.89-2.72h0l1.8-2.69h0L46.84,19h0L50,14.5h0L53.13,10Z"/><path class="cls-15" d="M37.41,73.88l.47-.89,2.23-3.12h0l.9-1.34h0c1.35-2,2.7-3.89,4-5.84h0L46,61.31h0l2.7-3.15a9.78,9.78,0,0,1-.34,2c-.4,1-1,2-1.46,3-4.12,5.83-8.27,11.64-12.34,17.49-1.28,1.84-.79,2.79,1.42,2.74,3.41-.06,6.83-.23,10.24-.47a2.74,2.74,0,0,0,1.82-1C51.85,75.92,55.63,70,59.43,64c.7-.51,1.4-1,2.08-1.52s1.31-1.09,2-1.63l.11,0-3.22,5.78-7.21,10.4-5,6.74h0l-.59.47a1.07,1.07,0,0,0-.25,0H31.56l0,0-.48-.55a1.71,1.71,0,0,0,0-.32l4.05-6.35h0l.91-1.36h0L37,74.36h0Z"/><path class="cls-15" d="M13.16,66.67q2.23-3.36,4.49-6.7l.88-.47c0-.29,0-.59,0-.88h1.34l-1.8,4C14,68.34,9.87,74,5.83,79.71a12,12,0,0,0-1.09,2.77,11,11,0,0,0,2.9.84c2.52,0,5.05-.43,7.56-.35a4.49,4.49,0,0,0,4.25-2.29C22.67,75.84,26,71,29.17,66.2a15.74,15.74,0,0,0,1-2.19l2.25-.89c-.45.84-.84,1.72-1.37,2.51Q24.79,75,18.44,84.28H3.25l-1.34-.89L9.1,72.57h0Z"/><path class="cls-6" d="M56.74,29.36Q50.1,39.05,43.45,48.75c-1.3,1.91-2.53,3.87-3.8,5.81l-1.34,1.35h0l-3.12,3.25c.44-1.09.89-2.17,1.33-3.26,1.5-2.24,3-4.49,4.49-6.74l5.84-8.55.9-1.35h0c.75-.9,1.55-1.76,2.23-2.71,2-2.76,3.86-5.61,5.91-8.33.8-1,1.93-2,3.09-.22l0,.05Z"/><path class="cls-4" d="M98.08,84.27h-.4l-.52-.48,0,0L97.06,83l7.77.39c1.86,0,3.73.07,5.59,0,1.56-.08,2-.78,1-2.17-1.91-2.55-3.78-5.13-5.67-7.7-.93-1.42-1.92-2.8-2.78-4.25s-1.75-3.17-2.62-4.76l.5,0,.85.49h0l.91,1.36h0l.89.87,3.16,5,.45.47h0l.45.9h0l1.35,1.8h0l.9,1.35h0l2.69,3.57c.45,1.35.9,2.7,1.36,4.06Z"/><path class="cls-8" d="M97.06,83l.13.86a38.87,38.87,0,0,1-3.38-3.67q-9.9-13.84-19.69-27.78a5.81,5.81,0,0,1-.44-1,8.59,8.59,0,0,1,1.86,1.34c1.57,1.94,3,4,4.54,5.95l.35.47,1,1.32h0l.92,1.35,5.74,8.13,1.32,1.79Z"/><path class="cls-6" d="M61.7,37.9l.43-.9c2-.47,1.48-1.69.77-2.84-1.27-2.06-2.64-4.08-4-6.11L59,28c1.51,1.74,3.11,3.42,4.5,5.25s1.23,3.66-.16,5.51c-1,1.28-1.7,2.72-2.55,4.09a13.92,13.92,0,0,0-1.36,1.41c-2.13,3-4.24,6-6.32,9.07-.65,1-1.17,2-1.75,3l-2.29,1.35c1.87-2.83,3.77-5.65,5.62-8.5,2.06-3.15,4.07-6.32,6.1-9.49h0Z"/><path class="cls-12" d="M19.89,58.61H18.55l6.28-9,.44-.49h0l.89-1.34h0l.89-1.34h0l.44-.44h0l.89-1.34h0l.89-1.34h0l.44-.44h0l.45-.89h0l.44-.44h0l.45-.89h0l.45-.44h0l.45-.89h0l.45-.45h0l.45-.45h0l.45-.89h0l.89-1.34h0l.44-.44h0l.44-.89h0l.44-.44h0l.89-.45V35.2c0,.15,0,.3,0,.45l-.89.9h0l-.9,1.35L28,48.25,23,55Z"/><path class="cls-11" d="M35.19,59.16l3.12-3.25C37.08,58,36,60.1,34.61,62.09Q27.53,72.55,20.3,82.89a7.35,7.35,0,0,1-1.86,1.39Q24.77,75,31.1,65.63c.53-.79.92-1.67,1.37-2.51h0l.91-1.35Z"/><path class="cls-6" d="M80.08,58.65c-1.51-2-3-4-4.54-5.95a8.59,8.59,0,0,0-1.86-1.34l-1.31-1.31-1.7,2.23a7.14,7.14,0,0,0-1.48,1.17c-1.91,2.45-3.75,5-5.62,7.45l-.11,0,1.38-3.6c.4-.52.82-1,1.2-1.55,1.43-2,2.72-4.06,4.28-5.92A2.72,2.72,0,0,1,74.8,50C76,51.48,77.13,53,78.3,54.55,78.89,55.92,79.49,57.29,80.08,58.65Z"/><path class="cls-9" d="M60.77,39.7c-2,3.17-4,6.34-6.1,9.49-1.85,2.85-3.75,5.67-5.62,8.5l-.4.48L46,61.32c.87-1.61,1.63-3.29,2.64-4.8,3.52-5.25,7.11-10.45,10.72-15.65A6.82,6.82,0,0,1,60.77,39.7Z"/><path class="cls-11" d="M63.57,60.9c1.87-2.49,3.71-5,5.62-7.45a7.14,7.14,0,0,1,1.48-1.17c-2.61,3.89-5.19,7.81-7.86,11.67a27.44,27.44,0,0,1-2.46,2.73Z"/><path class="cls-11" d="M31.56,84.25h15.8c-.51.3-1,.84-1.53.85q-6.21.12-12.43,0C32.78,85.1,32.17,84.55,31.56,84.25Z"/><path class="cls-11" d="M98.08,84.27l15.73,0a6.8,6.8,0,0,1-2.18.85c-3.89.09-7.78.08-11.67,0A5.74,5.74,0,0,1,98.08,84.27Z"/><path class="cls-8" d="M58.94,28.05c1.32,2,2.69,4.05,4,6.11.71,1.15,1.23,2.37-.77,2.84,0-3.31-2.87-7.41-5.39-7.64C57.47,28.92,58.2,28.48,58.94,28.05Z"/><path class="cls-9" d="M9.1,72.57,1.91,83.38c-.1-.38-.41-.92-.26-1.13C3.82,79.07,6,75.94,8.29,72.82,8.42,72.63,8.82,72.65,9.1,72.57Z"/><path class="cls-11" d="M48.18,83.82l5-6.74A12.28,12.28,0,0,1,48.18,83.82Z"/><path class="cls-11" d="M3.25,84.27H18.1c-.41.28-.81.81-1.21.8C12.59,85,8.28,84.86,4,84.7,3.73,84.69,3.49,84.42,3.25,84.27Z"/><path class="cls-11" d="M35.17,77.06l-4.05,6.35c0-.38-.25-.9-.08-1.13C32.37,80.51,33.78,78.79,35.17,77.06Z"/><path class="cls-9" d="M13.16,66.67,9.11,72.56A8.2,8.2,0,0,1,13.16,66.67Z"/><path class="cls-9" d="M45.05,62.67c-1.34,2-2.69,3.89-4,5.84C42.36,66.56,43.71,64.62,45.05,62.67Z"/><path class="cls-9" d="M112.45,80.18l-2.69-3.57Z"/><path class="cls-9" d="M40.11,69.87,37.88,73Z"/><path class="cls-9" d="M94.51,54.53c.76,1,1.51,2.09,2.26,3.13l-.09.09-2.23-3.17Z"/><path class="cls-9" d="M89.12,47.83,88.63,46l1.83,2.68,0,0-.91-.06Z"/><path class="cls-3" d="M63.06,9.57,61.68,6.85l2.24,2.71Z"/><path class="cls-3" d="M60.77,5.49,59,4.59l-.45-1.34A1.94,1.94,0,0,1,60.77,5.49Z"/><path class="cls-3" d="M37.88,29.82l.9-1.35L40.1,28v0l-.46,1.33-1.34,1.81h-.44l0,0Z"/><path class="cls-9" d="M67.07,15.4l-1.35-2.25Z"/><path class="cls-3" d="M81.44,35.2c-.45-.59-.89-1.19-1.34-1.79C80.55,34,81,34.61,81.44,35.2Z"/><path class="cls-9" d="M91.35,50l1.37,1.78-.08.07-1.32-1.82Z"/><path class="cls-12" d="M58.52,3.25,59,4.59h-1.8c0-.15,0-.29,0-.44h0l.91-.9Z"/><path class="cls-9" d="M108.86,75.26l-1.35-1.8Z"/><path class="cls-11" d="M38.31,55.91l1.34-1.35Z"/><path class="cls-9" d="M61.7,37.9l-.93,1.8Z"/><path class="cls-3" d="M84.6,39.26l-1.36-1.35Z"/><path class="cls-9" d="M70.22,19.9l-.9-1.36Z"/><path class="cls-9" d="M46,61.31l-.89,1.35Z"/><path class="cls-3" d="M61.67,6.84,60.78,5.5Z"/><path class="cls-9" d="M98.58,60.36l.87,1.38-.06,0-.91-1.34Z"/><path class="cls-9" d="M63.06,9.57h.86c0,.44,0,.89,0,1.33Z"/><path class="cls-9" d="M97.68,59l.9,1.35-.1.08-.91-1.34Z"/><path class="cls-9" d="M96.77,57.66,97.68,59l-.11.09c-.3-.45-.6-.9-.89-1.35Z"/><path class="cls-7" d="M29.32,43.31l-.89,1.34Z"/><path class="cls-9" d="M93.63,53.16l.88,1.37-.06,0c-.31-.44-.61-.89-.92-1.34Z"/><path class="cls-3" d="M34.27,36.11l-.89,1.34C33.67,37,34,36.56,34.27,36.11Z"/><path class="cls-9" d="M92.72,51.82l.91,1.34-.1.08c-.29-.45-.59-.9-.89-1.35Z"/><path class="cls-9" d="M90.46,48.68c.29.46.59.91.89,1.36l0,0-.91-1.34Z"/><path class="cls-7" d="M26.17,47.81l-.89,1.34Z"/><path class="cls-7" d="M27.07,46.46l-.89,1.34Z"/><path class="cls-9" d="M88.64,46l-.92-1.41Z"/><path class="cls-3" d="M79.19,32.07l-.89-.85c0-.18,0-.36,0-.54Z"/><path class="cls-7" d="M28.42,44.66,27.53,46Z"/><path class="cls-11" d="M36.07,75.71l-.91,1.36Z"/><path class="cls-9" d="M109.76,76.61l-.9-1.35Z"/><path class="cls-11" d="M37,74.36l-.91,1.36Z"/><path class="cls-3" d="M36.51,33.85l-.89.45.88-1.36,0,0,0,.88Z"/><path class="cls-9" d="M41,68.52l-.9,1.34Z"/><path class="cls-9" d="M102.57,66.27l-.91-1.36Z"/><path class="cls-9" d="M101.67,64.92l-.85-.49c0-.27-.07-.55-.11-.83l.12-.09Z"/><path class="cls-9" d="M99.9,62.18l.92,1.33-.11.09c-.29-.45-.59-.9-.89-1.35Z"/><path class="cls-3" d="M85.93,41.08,85,39.71Z"/><path class="cls-3" d="M54,7.75c0-.3,0-.59,0-.89l.88-.46Z"/><path class="cls-9" d="M103.45,67.13l-.89-.87Z"/><path class="cls-3" d="M82.33,36.13l-.89-.92Z"/><path class="cls-3" d="M58.09,3.25l-.91.9Z"/><path class="cls-9" d="M71.12,21.25l-.45-.9Z"/><path class="cls-9" d="M72.46,23.05l-.45-.9Z"/><path class="cls-3" d="M57.19,4.15c0,.15,0,.29,0,.44h-.88Z"/><path class="cls-7" d="M30.22,42l-.45.89Z"/><path class="cls-9" d="M74.26,25.75l-.45-.9Z"/><path class="cls-9" d="M64.83,12.25l-.45-.9Z"/><path class="cls-7" d="M33.37,37.46l-.45.89Z"/><path class="cls-7" d="M32,39.26l-.45.89Z"/><path class="cls-9" d="M76.51,28.91,76.05,28Z"/><path class="cls-3" d="M83.24,37.91l-.47-.9Z"/><path class="cls-9" d="M73.36,24.4l-.45-.9Z"/><path class="cls-9" d="M77.86,30.71l-.46-.91Z"/><path class="cls-3" d="M86.83,42.43,85.94,42Z"/><path class="cls-12" d="M18.53,59.5l-.88.47Z"/><path class="cls-3" d="M35.16,34.76l-.44.89Z"/><path class="cls-9" d="M69.32,18.55l-.45-.9Z"/><path class="cls-9" d="M75.61,27.55l-.46-.9Z"/><path class="cls-7" d="M31.12,40.61l-.45.89Z"/><path class="cls-3" d="M37,32.49l.45-.9,0,0c-.16.3-.31.6-.46.9Z"/><path class="cls-3" d="M80.1,33.4l-.47-.89Z"/><path class="cls-9" d="M107.51,73.46l-.45-.9Z"/><path class="cls-9" d="M68,16.75l-.45-.9Z"/><path class="cls-7" d="M29.77,42.86l-.44.44Z"/><path class="cls-9" d="M73.81,24.85l-.45-.46Z"/><path class="cls-7" d="M32.47,38.81l-.45.45Z"/><path class="cls-7" d="M27.52,46l-.44.44Z"/><path class="cls-9" d="M72.91,23.5,72.46,23Z"/><path class="cls-7" d="M32.92,38.35l-.45.45Z"/><path class="cls-9" d="M77,29.35l-.46-.46Z"/><path class="cls-7" d="M30.67,41.51l-.44.44Z"/><path class="cls-7" d="M25.27,49.16l-.44.49Z"/><path class="cls-9" d="M72,22.15l-.45-.45Z"/><path class="cls-9" d="M71.56,21.7l-.45-.46Z"/><path class="cls-9" d="M74.71,26.2l-.46-.46Z"/><path class="cls-9" d="M70.66,20.35l-.45-.46Z"/><path class="cls-3" d="M34.71,35.66l-.44.44Z"/><path class="cls-3" d="M56.29,4.6v.47l-.46,0Z"/><path class="cls-9" d="M75.16,26.65l-.46-.45Z"/><path class="cls-3" d="M55.39,6l-.45.45Z"/><path class="cls-9" d="M64.37,11.34l-.44-.45Z"/><path class="cls-3" d="M35.61,34.31l-.44.44Z"/><path class="cls-9" d="M99.45,61.74l.45.44-.08.07c-.14-.15-.28-.31-.43-.46Z"/><path class="cls-9" d="M65.27,12.69l-.45-.45Z"/><path class="cls-9" d="M65.72,13.14l-.44-.44Z"/><path class="cls-9" d="M68.42,17.19,68,16.74Z"/><path class="cls-9" d="M107.06,72.57l-.45-.47Z"/><path class="cls-9" d="M77.41,29.8,77,29.35Z"/><path class="cls-11" d="M37.41,73.88l-.45.49Z"/><path class="cls-3" d="M36.5,32.94l.45-.45,0,0-.44.46Z"/><path class="cls-9" d="M78.35,30.68c0,.18,0,.36,0,.54l-.45-.52Z"/><path class="cls-9" d="M76.06,28l-.46-.46Z"/><path class="cls-9" d="M68.86,17.64l-.44-.44Z"/><path class="cls-9" d="M67.52,15.84l-.45-.45Z"/><path class="cls-7" d="M31.57,40.16l-.45.44Z"/><path class="cls-11" d="M31.11,83.73l.48.55Z"/><path class="cls-11" d="M47.61,84.28l.59-.47Z"/><path class="cls-8" d="M97.16,83.8l.52.48Z"/><path class="cls-3" d="M37.4,31.59l.45-.45,0,0c-.15.15-.3.3-.44.46Z"/><path class="cls-12" d="M45.5,20.8l-1.8,2.69c0-.29,0-.59,0-.89h0l.45-.47.44-.88.46-.45h.45Z"/><path class="cls-3" d="M46.42,17.67l.44,0c0,.45,0,.9,0,1.35h0l-.89.45h0Z"/><path class="cls-3" d="M43.71,22.6c0,.3,0,.6,0,.89h-.45Z"/><path class="cls-3" d="M42.35,24.85l.45-.91v0l-.46.89Z"/><path class="cls-3" d="M41,26.65l.45-.91v0c0,.29,0,.59,0,.89H41Z"/><path class="cls-3" d="M45.5,20.8h-.45l.45-.9h0v.9Z"/><path class="cls-3" d="M40.1,28l.45-.9,0,0,0,.88-.44,0Z"/><path class="cls-3" d="M41.9,25.3l.45-.45h0l-.44.46Z"/><path class="cls-3" d="M42.8,23.94l.45-.44h0l-.44.46Z"/><path class="cls-3" d="M44.15,22.13l-.45.47Z"/><path class="cls-3" d="M45.05,20.8l-.46.45Z"/><path class="cls-3" d="M45.5,19.9l.45-.45h0l-.44.45Z"/><path class="cls-3" d="M40.55,27.09l.45-.44h0l-.44.45Z"/><path class="cls-3" d="M41.45,25.74l.45-.44h0l-.45.46Z"/><path class="cls-12" d="M46.84,19c0-.45,0-.9,0-1.35l.89-.88.9-1.36h0L49.1,15h0l.45-.45H50Z"/><path class="cls-3" d="M48.65,15.4l-.9,1.36Z"/><path class="cls-3" d="M50,14.5h-.45V13.15H50c0,.45,0,.9,0,1.35Z"/><path class="cls-3" d="M49.1,15l-.45.45Z"/><path class="cls-3" d="M49.54,14.5l-.45.45Z"/><path class="cls-12" d="M50,14.49c0-.45,0-.9,0-1.35l.88-.89.45-.45h0l.45-.9h0l1.34-.9C52.08,11.49,51,13,50,14.49Z"/><path class="cls-3" d="M51.79,10.9l-.45.9Z"/><path class="cls-3" d="M51.34,11.8l-.45.45Z"/><path class="cls-16" d="M139.87,63.11c-1.52,2.6-3,5.26-4.59,7.78-1.78,2.74-3.71,5.39-5.64,8-1.23,1.67-2.16,1.72-3.31,0-3.4-5-6.71-10-10-15a3.94,3.94,0,0,1-.27-1.29,31.23,31.23,0,0,1,5-.85c3,0,5.94.34,8.91.35,2.44,0,4.89-.39,7.33-.33C138.16,61.85,139,62.66,139.87,63.11Z"/><path class="cls-17" d="M139.87,63.11c-.86-.45-1.71-1.26-2.58-1.28-2.44-.06-4.89.34-7.33.33-3,0-5.94-.39-8.91-.35a31.23,31.23,0,0,0-5,.85l-4-4,10.78-1.36c.66.59,1.35,1.15,2,1.77,2.2,2.14,4.92,1.88,6.86-.55A17.92,17.92,0,0,1,134,56.35l10.81.45L143,60.86Z"/><path class="cls-18" d="M122.79,57.25,112,58.61c-.75-1.2-1.5-2.4-2.26-3.6l.45-2.26a21.7,21.7,0,0,0,2.42,0c2.19-.26,4.38-.59,6.57-.89Z"/><path class="cls-10" d="M143,60.86c.61-1.35,1.21-2.7,1.81-4.06l4.94-7.19h.44l1,1.38-9.5,13.5Z"/><path class="cls-3" d="M110.2,52.75,109.75,55l-2.68-1.35c-.81-1.48-1.59-3-2.44-4.44s-1.67-2.74-2.52-4.1l2.25.89C106.3,48.27,109.34,49.56,110.2,52.75Z"/><path class="cls-2" d="M102.11,45.12c.85,1.36,1.72,2.71,2.52,4.1s1.63,3,2.44,4.44c0,.32,0,.64,0,1-1.33-1.54-2.66-3.09-4-4.63-1.33-2-2.68-4.07-4-6.12-.67-1.06-1.26-2.16-1.89-3.25l2.25.89c0,.15,0,.3,0,.45l.89.9Z"/><path class="cls-19" d="M95.38,35.65c0-.15,0-.3,0-.45-2-3.11-3.85-6.31-6-9.33-4.29-6.07-8.75-12-13.09-18.07-1.53-2.12-1.07-3.16,1.47-3.17a40.13,40.13,0,0,1,8.43.58c1.27.28,2.45,1.8,3.31,3,2.31,3.28,4.42,6.7,6.65,10,.22.33.68.5,1,.74a8.38,8.38,0,0,1,2.27,6.28c-.08,3.76,0,7.53-.08,11.29,0,.76-.84,1.49-1.29,2.23L96.72,37Z"/><path class="cls-20" d="M110.2,52.75c-.86-3.19-3.9-4.48-5.84-6.74V31.64L107.05,33c3.77,5.65,7.55,11.28,11.29,16.94a12.74,12.74,0,0,1,.85,2c-2.19.3-4.38.63-6.57.89A21.7,21.7,0,0,1,110.2,52.75Z"/><path class="cls-12" d="M100.31,42.86l-.89-.9Z"/><path class="cls-3" d="M105.26,28l.45.46Z"/><path class="cls-12" d="M84.58,22.62l-1.81-2.7Z"/><path class="cls-12" d="M81.87,18.57l-1.34-1.81Z"/><path class="cls-12" d="M85.92,24.42l-1.35-1.81Z"/><path class="cls-12" d="M82.78,19.92l-.91-1.35Z"/><path class="cls-5" d="M95.76,14.1c0,.27.07.54.1.81L95,13.56Z"/><path class="cls-12" d="M80.53,16.76l-.92-1.35Z"/><path class="cls-8" d="M88.57,3.7h0Z"/><path class="cls-14" d="M150.2,49.62H135.37l-1.8-.9c-.41-.93-.79-1.87-1.23-2.78-1.38-2.83-2.78-5.65-4.16-8.47,1.83-1.18,3.8-2.18,4.67-4.41.17-.42.77-.67,1.17-1a7.52,7.52,0,0,1,1.16.91c1.49,1.76,2.85,3.63,4.42,5.31,2,2.19,4.6,1.91,6.39-.53a35.38,35.38,0,0,0,2.31-3.29c1.44-2.56,2.77-5.19,4.15-7.8L156,23.92l8.12,5,0,1.37q-6.48,8.7-12.95,17.41A13.17,13.17,0,0,0,150.2,49.62Z"/><path class="cls-18" d="M135.37,49.61h14.39l-4.94,7.19L134,56.35Q134.69,53,135.37,49.61Z"/><path class="cls-7" d="M128.18,37.46c1.38,2.82,2.78,5.64,4.16,8.47.44.91.82,1.85,1.23,2.78L132.68,50c-3.58-5.2-7.12-10.42-10.74-15.59-1.44-2-3-4-4.55-6h0l-.89-1.34h0l-1.8-2.69h0l-1.34-1.8h0l-.45-.9h0l-.45-.45h0c-.3-.45-.6-.9-.89-1.35h0l-.45-1.33c0-.46,0-.93,0-1.39h.44a33.52,33.52,0,0,1,2.84,3c3.87,5.18,7.64,10.42,11.53,15.58A9.71,9.71,0,0,0,128.18,37.46Z"/><path class="cls-8" d="M117.39,28.46c1.52,2,3.11,3.93,4.55,6,3.62,5.17,7.16,10.39,10.74,15.59.74,1.4.71,2.59-.92,3.34,0-.2,0-.4,0-.59.78-1.23.41-2.11-.81-2.73-1.52-2.38-3-4.77-4.54-7.15L125.5,42a1.65,1.65,0,0,1,0-.38l-.86-1a2.32,2.32,0,0,1,0-.38l-.89-1.39h0l-.94-1.35-2.16-2.76-1.84-3.11h0l-.91-1.37Z"/><path class="cls-11" d="M131.32,54.13l.46-.6Z"/><path class="cls-21" d="M156,23.92l-3.59,2.73-.52-.48c3.67-5.39,7.37-10.75,11-16.17,1.25-1.88,2.3-3.9,3.44-5.85l2.25-1.8a20,20,0,0,0,2.53.44c3.64.15,7.29.23,10.93.34l1.81.09,0,1.27L171.76,22.14h0l-.9,1.35h0l-1.35,1.81h0l-.91,1.36h0L167.71,28h0l-.9,1.36h0l-.46.46h0l-.48.44-1.76,0,0-1.37a14.67,14.67,0,0,0,2-2.34c.69-1.25,1-2.77,1.74-3.94s2.1-1.86,2.94-2.95C174,15.58,177,11.43,180,7.26a2.39,2.39,0,0,0,.45-2c-.26-.45-1.26-.63-2-.65-2.31-.07-4.64,0-6.95,0a4.53,4.53,0,0,0-4.3,2.29c-1.42,2.19-3,4.28-4.32,6.53-1,1.75-1.72,3.68-2.65,5.72C157.77,19.3,157,21.72,156,23.92Z"/><path class="cls-8" d="M169.51,25.3l1.35-1.81Z"/><path class="cls-8" d="M170.86,23.49l.9-1.35Z"/><path class="cls-8" d="M166.82,29.35l.9-1.36Z"/><path class="cls-8" d="M168.61,26.65c.3-.46.61-.91.91-1.36C169.22,25.74,168.91,26.19,168.61,26.65Z"/><path class="cls-8" d="M167.71,28l.91-1.36Z"/><path class="cls-8" d="M165.34,32.12l-.31.23-.2-.44c.12-.05.26-.16.35-.13S165.29,32,165.34,32.12Z"/><path class="cls-8" d="M165.89,30.23l.48-.44-.4,1-.08-.08A3.23,3.23,0,0,0,165.89,30.23Z"/><path class="cls-8" d="M162.23,36.54l-.07.17-.18-.24c.05,0,.12-.1.15-.09S162.2,36.48,162.23,36.54Z"/><path class="cls-8" d="M163.7,33.87l-.46.89h0l.45-.91Z"/><path class="cls-8" d="M162.81,35.23l-.23.2.18-.25Z"/><path class="cls-8" d="M162.76,35.18l.46-.43h0l-.43.47Z"/><path class="cls-8" d="M164.13,33.41c-.14.15-.29.3-.43.46l0,0,.45-.44Z"/><path class="cls-8" d="M164.12,33.4l.21-.21c0,.05,0,.11,0,.13a.68.68,0,0,1-.17.09Z"/><path class="cls-8" d="M166.36,29.8l.46-.46Z"/><path class="cls-8" d="M166,30.75l-.25.18a2.33,2.33,0,0,0,.17-.26Z"/><path class="cls-7" d="M151.93,26.17l.52.48c-1.38,2.61-2.71,5.24-4.15,7.8A35.38,35.38,0,0,1,146,37.74c-1.79,2.44-4.35,2.72-6.39.53-1.57-1.68-2.93-3.55-4.42-5.31a7.52,7.52,0,0,0-1.16-.91c-1.08-1.91-2.06-3.9-3.28-5.72C126.62,20.2,122.33,14.19,118.29,8c-1.17-1.77-2.18-3.35-4.49-3.42,0-.15,0-.3,0-.45l.45-1.28,1.37,0c-.07,1.68,1.32,1.43,2.29,1.72,2.18,3,4.36,6,6.52,9q4.36,6.06,8.71,12.15v0l.45.46h0l.9,1.35h0l.9,1.36h0l.46.45h0l.45.91v0l.46.46h0l.45.46h0l.46.91h0l.91,1.36h0l.46.46h0l.46.46h0l.46.91v0l.46.47h0l.46.46h0c1,2,2.09,2.18,3.4.47,2.17-2.86,4.21-5.81,6.33-8.71C150.92,27.26,151.44,26.73,151.93,26.17Z"/><path class="cls-3" d="M114.24,2.87l-.45,1.28a55.23,55.23,0,0,0-5.61,0,27.05,27.05,0,0,0-4.12,1.11c.6,1.24,1.11,2.53,1.82,3.7,1.69,2.76,3.48,5.47,5.23,8.19,0,.46,0,.93,0,1.39l-.45,0h0l-.45-.45h0l0-.56a1.7,1.7,0,0,0-.27-.33l-.65-.46h0l-.45-.91v0l-.46-.46h0l-.46-.91v0l-.46-.46h0l-.42-.56c-1.48-2.27-3-4.53-4.43-6.83-.58-.92-1-1.93-1.53-2.9l.53-.51,0,0,.43-.42h0Z"/><path class="cls-8" d="M114.69,24.41l1.8,2.69C114.86,26.89,114.5,25.83,114.69,24.41Z"/><path class="cls-11" d="M118.71,31.62l1.84,3.11-.88-.45-.9-1.35Z"/><path class="cls-8" d="M113.35,22.61l1.34,1.8Z"/><path class="cls-8" d="M110.65,18.55l.45,0,.45,1.33Z"/><path class="cls-8" d="M111.55,19.9c.29.45.59.9.89,1.35Z"/><path class="cls-11" d="M117.8,30.26l.91,1.37Z"/><path class="cls-8" d="M116.49,27.11l.89,1.34Z"/><path class="cls-8" d="M112.89,21.7l.45.9Z"/><path class="cls-8" d="M108.85,15.84l.45.91Z"/><path class="cls-8" d="M108,14.49l.46.91Z"/><path class="cls-8" d="M112.45,21.26l.45.45Z"/><path class="cls-8" d="M110.2,18.1l.45.45Z"/><path class="cls-8" d="M110.22,17.54l0,.56Z"/><path class="cls-8" d="M107.09,13.49l.42.56-.49.06C107,13.91,107.07,13.7,107.09,13.49Z"/><path class="cls-8" d="M107.5,14.05l.46.46Z"/><path class="cls-8" d="M108.4,15.4l.46.46Z"/><path class="cls-8" d="M109.3,16.75l.65.46Z"/><path class="cls-3" d="M117.9,4.57c-1-.29-2.36,0-2.29-1.72L117,2.8l.44.43.46.48v0Z"/><path class="cls-2" d="M97.16,40.61l-1.35-1.8Z"/><path class="cls-6" d="M95.38,35.65,96.72,37Z"/><path class="cls-8" d="M134.47,27.55l-.9-1.35Z"/><path class="cls-8" d="M135.37,28.91l-.9-1.36Z"/><path class="cls-8" d="M138.52,33.41l-.91-1.36Z"/><path class="cls-8" d="M139.87,35.21l-.46-.91Z"/><path class="cls-8" d="M136.27,30.26l-.45-.91Z"/><path class="cls-8" d="M137.62,32.06l-.46-.91Z"/><path class="cls-8" d="M140.77,36.11l-.46-.46Z"/><path class="cls-8" d="M135.82,29.35l-.46-.45Z"/><path class="cls-8" d="M140.32,35.66l-.46-.47Z"/><path class="cls-8" d="M133.57,26.2l-.45-.46Z"/><path class="cls-8" d="M139.42,34.31l-.46-.46Z"/><path class="cls-8" d="M139,33.86l-.46-.46Z"/><path class="cls-8" d="M136.72,30.7l-.46-.46Z"/><path class="cls-8" d="M137.17,31.16l-.45-.46Z"/><path class="cls-11" d="M130.91,50.05c1.22.62,1.59,1.5.81,2.73Z"/><path class="cls-11" d="M125.5,42l.87.95-.85-.08C125.51,42.53,125.5,42.24,125.5,42Z"/><path class="cls-11" d="M122.71,37.49l.94,1.35Z"/><path class="cls-11" d="M123.65,38.83l.89,1.39Z"/><path class="cls-11" d="M124.59,40.6l.86,1Z"/><path class="cls-8" d="M117.85,3.71l-.46-.48Z"/><path class="cls-11" d="M102.13,2.79l-.43.42Z"/><path class="cls-22" d="M60.77,42.85c.85-1.37,1.6-2.81,2.55-4.09,1.39-1.85,1.55-3.71.16-5.51s-3-3.51-4.5-5.25c-1.16-1.8-2.29-.83-3.09.22-2,2.72-3.92,5.57-5.91,8.33-.68,1-1.48,1.81-2.23,2.71.33-.88.61-1.78,1-2.62,1.12-2.29,2.31-4.56,3.47-6.84.93-.86,1.87-1.7,2.79-2.58,2-1.92,3.59-2,5.75-.35.64.51,1.33,1,1.94,1.51a5,5,0,0,0,6.68-.2c1.08-1,1.42-1.87.67-3.29C69.07,23,68.35,21,67.52,19c2.11,2.95,4.27,5.87,6.34,8.85q5.52,8,11,16A19.81,19.81,0,0,1,85.94,46a49.2,49.2,0,0,1-6.12.85c-5.38.13-10.77,0-16.16,0-3.78,0-3.77,0-2.9-3.61A2.24,2.24,0,0,0,60.77,42.85Z"/><path class="cls-23" d="M67.52,19c.83,2,1.55,4,2.55,5.89.75,1.42.41,2.29-.67,3.29a5,5,0,0,1-6.68.2c-.61-.54-1.3-1-1.94-1.51-2.16-1.67-3.73-1.57-5.75.35-.92.88-1.86,1.72-2.79,2.58a40.55,40.55,0,0,0-6.86-.24c-1.89.23-2.5-.34-2.58-2v-.9c0-.15,0-.3,0-.44A50.93,50.93,0,0,0,46.64,22c3.28-4.53,6.43-9.16,9.63-13.76,1.64-2.37,2.41-2.4,4.07,0C62.77,11.8,65.13,15.41,67.52,19Z"/><path class="cls-24" d="M60.77,42.85a2.24,2.24,0,0,1,0,.45c-.87,3.61-.88,3.61,2.9,3.61,5.39,0,10.78.08,16.16,0A49.2,49.2,0,0,0,85.94,46l3.18,1.82c.12.28.25.56.38.84l1.83,4.09c-.54.3-1.06.81-1.63.86-3.8.37-7.6.63-11.4.93C77.13,53,76,51.48,74.8,50a2.72,2.72,0,0,0-4.48-.18c-1.56,1.86-2.85,4-4.28,5.92-.38.53-.8,1-1.2,1.55A33.42,33.42,0,0,0,59.1,56a74.78,74.78,0,0,0-7.76.37c.58-1,1.1-2.05,1.75-3,2.08-3,4.19-6.06,6.32-9.07A13.92,13.92,0,0,1,60.77,42.85Z"/><path class="cls-12" d="M42.81,26.21c0,.14,0,.29,0,.44H41.45c0-.3,0-.6,0-.89l.45-.46.44-.45.46-.89.44-.46h.45C43.4,24.4,43.1,25.3,42.81,26.21Z"/><path class="cls-12" d="M45.51,19.9l.44-.45.89-.45L45.5,20.8Z"/><path class="cls-25" d="M59.43,64C55.63,70,51.85,75.92,48,81.84a2.74,2.74,0,0,1-1.82,1c-3.41.24-6.83.41-10.24.47-2.21,0-2.7-.9-1.42-2.74,4.07-5.85,8.22-11.66,12.34-17.49,3.11-1.6,6.46-1.39,9.8-1.36C58.2,61.77,59.22,62.37,59.43,64Z"/><path class="cls-26" d="M59.43,64c-.21-1.64-1.23-2.24-2.78-2.26-3.34,0-6.69-.24-9.8,1.36.49-1,1.06-2,1.46-3a9.78,9.78,0,0,0,.34-2l.4-.48,2.29-1.35A74.78,74.78,0,0,1,59.1,56a33.42,33.42,0,0,1,5.74,1.29l-1.38,3.6c-.64.54-1.28,1.1-2,1.63S60.13,63.5,59.43,64Z"/><path class="cls-25" d="M30.22,64a15.74,15.74,0,0,1-1,2.19C26,71,22.67,75.84,19.45,80.68A4.49,4.49,0,0,1,15.2,83c-2.51-.08-5,.34-7.56.35a11,11,0,0,1-2.9-.84,12,12,0,0,1,1.09-2.77c4-5.71,8.16-11.37,12.26-17,3.37-.3,6.73-.65,10.11-.87C29.65,61.69,30.41,62.49,30.22,64Z"/><path class="cls-26" d="M30.22,64c.19-1.52-.57-2.32-2-2.22-3.38.22-6.74.57-10.11.87l1.8-4L23,55a8.68,8.68,0,0,0,1.7.44c3.93.18,7.86.31,11.79.46-.44,1.09-.89,2.17-1.33,3.26l-1.81,2.61-.91,1.35h0Z"/><path class="cls-27" d="M42.8,27.55c.08,1.67.69,2.24,2.58,2a40.55,40.55,0,0,1,6.86.24c-1.16,2.28-2.35,4.55-3.47,6.84-.41.84-.69,1.74-1,2.62h0l-.9,1.35L41,49.16c-3.39.3-6.78.56-10.16.91A2.4,2.4,0,0,1,28,48.25L34.71,37.9l.9-1.35h0l.89-.9c0-.15,0-.3,0-.45l1.34-1.35c0-.15,0-.3,0-.45A6.18,6.18,0,0,0,39,32.48C40.31,30.86,41.54,29.2,42.8,27.55Z"/><path class="cls-24" d="M28,48.25a2.4,2.4,0,0,0,2.88,1.82c3.38-.35,6.77-.61,10.16-.91-1.5,2.25-3,4.5-4.49,6.74-3.93-.15-7.86-.28-11.79-.46A8.68,8.68,0,0,1,23,55Z"/><path class="cls-22" d="M46.85,40.61l.9-1.35Z"/><path class="cls-28" d="M97.06,83,89.38,71.72A16.59,16.59,0,0,1,91.29,73c.66.58,1.1,1.47,1.82,1.91a3.48,3.48,0,0,0,2.42.56c.4-.11.7-1.34.71-2.08.07-3.57,0-7.14,0-10.71l1.35-.46,2.7,2.26c.87,1.59,1.69,3.21,2.62,4.76s1.85,2.83,2.78,4.25c-.3,3.3-.59,6.6-.89,9.89Z"/><path class="cls-16" d="M104.83,83.36c.3-3.29.59-6.59.89-9.89,1.89,2.57,3.76,5.15,5.67,7.7,1,1.39.59,2.09-1,2.17C108.56,83.43,106.69,83.36,104.83,83.36Z"/><path class="cls-12" d="M100.32,64.46l-2.7-2.26q-3.14-4.73-6.29-9.44L89.5,48.67l.91.06.91,1.34,1.32,1.82c.3.45.6.9.89,1.35s.61.9.92,1.34l2.23,3.17c.29.45.59.9.89,1.35l.91,1.34.91,1.35c.15.15.29.31.43.46.3.45.6.9.89,1.35,0,.28.08.56.11.83Z"/><path class="cls-26" d="M91.33,52.76q3.15,4.73,6.29,9.44l-1.35.46c-2.37,0-4.74,0-7.11,0-1.88,0-2.57,1.07-2.27,2.72a28,28,0,0,0,1.22,3.3,3.55,3.55,0,0,1,0,1.25L82.32,61.8l-.92-1.35h0l-1-1.32-.35-.47c-.59-1.36-1.19-2.73-1.78-4.1,3.8-.3,7.6-.56,11.4-.93C90.27,53.57,90.79,53.06,91.33,52.76Z"/><path class="cls-25" d="M88.06,69.93a3.55,3.55,0,0,0,0-1.25,28,28,0,0,1-1.22-3.3c-.3-1.65.39-2.74,2.27-2.72,2.37,0,4.74,0,7.11,0,0,3.57,0,7.14,0,10.71,0,.74-.31,2-.71,2.08a3.48,3.48,0,0,1-2.42-.56c-.72-.44-1.16-1.33-1.82-1.91a16.59,16.59,0,0,0-1.91-1.26Z"/><path class="cls-6" d="M81.4,60.45l.92,1.35Z"/><path class="cls-6" d="M80.43,59.12l1,1.32Z"/><path class="cls-6" d="M37.85,33.85,36.51,35.2V33.85h1.34Z"/><path class="cls-6" d="M35.61,36.55l-.9,1.35Z"/><path class="cls-6" d="M36.5,35.65l-.89.9Z"/><path class="cls-15" d="M32.47,63.12l.91-1.35Z"/><path class="cls-12" d="M37.85,33.85H36.5l0-.88.44-.46c.15-.3.3-.6.46-.9l.44-.45h.44l-.45,2.25C37.86,33.55,37.85,33.7,37.85,33.85Z"/><path class="cls-12" d="M38.31,31.15l1.34-1.81h0l-1.35,1.8Z"/><path class="cls-12" d="M40.11,28l.44,0h0l-.9,1.35h0Z"/><path class="cls-12" d="M40.57,27.11l.44-.45h.45L40.56,28h0C40.56,27.7,40.56,27.41,40.57,27.11Z"/><path class="cls-13" d="M113.8,4.6c2.31.07,3.32,1.65,4.49,3.42,4,6.17,8.33,12.18,12.45,18.31,1.22,1.82,2.2,3.81,3.28,5.72-.4.33-1,.58-1.17,1-.87,2.23-2.84,3.23-4.67,4.41a9.71,9.71,0,0,1-2.26-1.68c-3.89-5.16-7.66-10.4-11.53-15.58a33.52,33.52,0,0,0-2.84-3,24,24,0,0,0-.51-2.35c-.66-2.17-1.48-4.31-2-6.5a2.19,2.19,0,0,1,1.67-2.91Z"/><path class="cls-29" d="M156,23.92c1-2.2,1.73-4.62,4.25-4.81.93-2,1.64-4,2.65-5.72,1.31-2.25,2.9-4.34,4.32-6.53a4.53,4.53,0,0,1,4.3-2.29c2.31.09,4.64,0,6.95,0,.69,0,1.69.2,2,.65a2.39,2.39,0,0,1-.45,2c-3,4.17-6,8.32-9.17,12.4-.84,1.09-2.18,1.82-2.94,2.95s-1.05,2.69-1.74,3.94a14.67,14.67,0,0,1-2,2.34Z"/><path class="cls-20" d="M113.8,4.6l-3.13.83A2.19,2.19,0,0,0,109,8.34c.56,2.19,1.38,4.33,2,6.5a24,24,0,0,1,.51,2.35h-.44c-1.75-2.72-3.54-5.43-5.23-8.19-.71-1.17-1.22-2.46-1.82-3.7a27.05,27.05,0,0,1,4.12-1.11,55.23,55.23,0,0,1,5.61,0C113.8,4.3,113.8,4.45,113.8,4.6Z"/><path class="cls-6" d="M40.56,28l.9-1.35h1.33c0,.3,0,.6,0,.9-1.26,1.65-2.49,3.31-3.78,4.93a6.18,6.18,0,0,1-1.16.92l.45-2.25,1.35-1.8Z"/></g></g></svg>