<?xml version="1.0" encoding="UTF-8" standalone="no"?>
<!DOCTYPE svg PUBLIC "-//W3C//DTD SVG 1.1//EN" "http://www.w3.org/Graphics/SVG/1.1/DTD/svg11.dtd">
<svg version="1.1" xmlns="http://www.w3.org/2000/svg" xmlns:xlink="http://www.w3.org/1999/xlink" preserveAspectRatio="xMidYMid meet" viewBox="0 0 620 620" width="620" height="620"><defs><path d="M-424.68 530.25C-424.68 530.66 -416.32 531.07 -406.15 531.07C-404.92 531.07 -398.8 531.07 -387.78 531.07L-343.5 467.36L-299.23 403.65C-295.39 409.11 -293.26 412.15 -292.83 412.75C-289.39 417.64 -286.44 422.4 -286.44 423.08C-286.44 423.89 -302.34 447.39 -321.86 475.37C-341.37 503.36 -357.77 527.4 -358.43 528.76C-359.41 530.93 -358.1 531.07 -340.88 530.79C-339.65 530.77 -333.47 530.63 -322.35 530.39C-306.11 507 -297.1 494 -295.29 491.4C-280.2 470.08 -267.58 452.14 -267.09 451.74C-266.59 451.33 -253.8 468.99 -238.39 490.99C-236.54 493.67 -227.3 507.02 -210.67 531.07C-199.46 531.07 -193.22 531.07 -191.98 531.07C-177.87 531.07 -173.61 530.66 -174.27 529.3C-175.41 526.86 -296.77 352.71 -298.24 351.35C-299.06 350.81 -302.51 354.48 -306.11 359.5C-325.3 386.4 -424.68 529.57 -424.68 530.25Z" id="bd42cUbIE"></path><path d="M-143.6 530.66C-142.12 530.25 -18.15 353.26 -17.98 351.35C-17.98 350.81 -26.35 350.4 -36.35 350.4C-37.59 350.41 -43.76 350.46 -54.88 350.54C-71.51 374.5 -80.75 387.81 -82.6 390.47C-97.85 412.48 -110.8 430.55 -111.29 430.55C-111.79 430.55 -124.74 412.48 -139.99 390.47C-141.85 387.8 -151.14 374.45 -167.87 350.4L-186.4 350.4L-205.1 350.4C-203.42 353.01 -202.49 354.46 -202.31 354.75C-200.83 357.19 -184.43 380.97 -165.9 407.45C-147.37 433.94 -131.96 456.63 -131.63 457.71C-131.3 458.94 -133.76 464.1 -137.37 469.12C-137.79 469.74 -139.93 472.82 -143.76 478.36C-166.69 445.43 -179.43 427.14 -181.97 423.48C-202.96 393.33 -223.14 364.67 -226.74 359.5C-227.17 358.9 -229.3 355.86 -233.14 350.4C-243.96 350.4 -249.98 350.4 -251.18 350.4C-266.1 350.4 -269.05 350.67 -268.56 352.44C-267.58 356.24 -145.08 531.07 -143.6 530.66Z" id="c94RN83ab"></path><path d="M474.83 710.94L464.99 710.94L455.31 710.94L447.93 721.4L440.55 732L457.61 732.41L474.83 732.81L474.83 746.94L474.83 761.2L487.95 761.2L501.07 761.2L501.07 746.94L501.07 732.81L512.05 732.41L523.04 732C526.78 726.7 528.86 723.76 529.27 723.17C532.55 718.28 535.34 713.52 535.34 712.57C535.5 711.35 531.08 710.94 518.29 710.94C517.14 710.94 511.4 710.94 501.07 710.94L501.07 696.68L501.07 682.42L487.95 682.42L474.83 682.42L474.83 696.68L474.83 710.94Z" id="a1aknMxJxp"></path><path d="M-296.32 735.33C-293.53 735.33 -290.74 733.02 -285.17 725.82C-284.68 725.19 -282.22 722.07 -277.79 716.44C-273.46 722.07 -271.05 725.19 -270.57 725.82C-264.83 733.29 -262.37 735.33 -259.26 735.33C-254.17 735.33 -254.67 734.1 -265.49 719.98C-271.88 711.69 -275.49 708.29 -277.79 708.29C-280.08 708.29 -283.69 711.69 -290.09 719.98C-300.91 734.1 -301.4 735.33 -296.32 735.33Z" id="a9dynMkBO"></path><path d="M-249.09 735.6C-238.86 735.27 -233.17 735.09 -232.04 735.05C-210.72 734.51 -209.73 733.83 -209.73 721.61C-209.73 709.24 -211.54 708.16 -233.02 708.16C-234.09 708.16 -239.45 708.16 -249.09 708.16L-249.09 721.88L-249.09 735.6Z" id="b73BZoCYO"></path><path d="M-201.53 735.33C-192.38 735.33 -187.3 735.33 -186.28 735.33C-177.43 735.33 -169.55 734.51 -167.09 733.56C-163.32 732.07 -162.99 730.98 -162.5 721.33C-162.01 711.15 -162.17 710.88 -166.27 709.52C-168.73 708.7 -177.59 708.16 -186.12 708.16C-187.15 708.16 -192.28 708.16 -201.53 708.16L-201.53 721.74L-201.53 735.33Z" id="aiXloQblu"></path><path d="M92.26 333.3C96.2 333.3 129.95 293.69 129.95 289.03C129.95 287.86 127.14 286.7 123.48 286.7C118.7 286.7 114.48 290.43 106.04 301.84C99.85 310 93.95 316.76 93.1 316.99C92.26 316.99 86.35 310.23 79.88 301.84C70.6 289.73 66.94 286.7 61.03 286.7C57.09 286.7 54 287.4 54 288.33C54 292.29 88.88 333.3 92.26 333.3Z" id="jKzKVa6XQ"></path><path d="M128.27 333.3C134.17 333.3 137.83 330.27 147.4 318.15C154.15 310 160.34 303.01 161.46 303.01C162.31 303.01 168.5 309.77 174.68 318.15C183.97 330.27 187.63 333.3 193.25 333.3C197.19 333.3 200.28 332.6 200.28 331.67C200.28 327.01 165.12 286.7 161.18 286.7C158.65 286.7 149.37 295.78 139.8 308.13C118.98 334 119.55 333.3 128.27 333.3Z" id="cNKDDVzhb"></path><path d="M216.32 332.84C222.23 333.53 222.51 332.6 223.35 318.39C223.41 317.38 223.69 312.33 224.2 303.24C239.22 312.33 247.57 317.38 249.23 318.39C263.02 326.54 275.4 333.3 276.8 333.3C277.93 333.3 279.05 322.82 279.05 310C279.05 288.33 278.77 286.7 273.43 286.7C268.93 286.7 268.08 288.56 267.24 300.91C267.18 301.84 266.9 306.5 266.4 314.89C252.89 306.5 245.39 301.84 243.89 300.91C231.51 293.22 218.57 286.7 214.91 286.7C208.72 286.7 208.44 287.16 209.29 309.3C210.13 330.74 210.41 332.14 216.32 332.84Z" id="aaUWsXG8Y"></path><path d="M305.22 297.18C306.1 297.18 310.51 297.18 318.44 297.18C318.44 307.95 318.44 313.93 318.44 315.13C318.44 333.07 318.44 333.3 325.47 333.3C332.51 333.3 332.51 333.07 332.51 315.13C332.51 313.93 332.51 307.95 332.51 297.18C339.59 297.18 343.53 297.18 344.32 297.18C354.73 297.18 356.42 296.48 357.26 291.82C358.11 286.7 357.82 286.7 324.07 286.7C290.31 286.7 290.03 286.7 290.87 291.82C291.71 296.48 293.4 297.18 305.22 297.18Z" id="d9MkLlwp6"></path><path d="M358.67 332.84C362.89 332.37 369.08 327.01 377.24 316.52C378.06 315.48 382.19 310.28 389.61 300.91C397.04 310.56 401.17 315.92 401.99 316.99C411.84 329.81 416.06 333.3 421.4 333.3C425.06 333.3 428.15 332.37 428.15 331.2C428.15 325.84 394.12 286.7 389.33 286.7C386.52 286.7 378.36 294.62 368.51 307.2C350.51 329.81 349.1 334 358.67 332.84Z" id="b7Oi8iHEv"></path><path d="M433.78 308.6C433.78 316.76 435.47 324.91 437.44 327.24C442.22 332.6 471.2 334.93 485.54 330.97C495.39 328.41 495.67 327.94 495.67 316.76C495.67 306.04 495.11 305.34 488.64 305.34C482.45 305.34 481.61 306.27 481.61 313.49C481.61 314.04 481.61 316.76 481.61 321.65L464.73 321.65L447.85 321.65L447.85 310L447.85 298.58C461.86 298.16 469.64 297.93 471.2 297.88C492.58 297.18 494.27 296.72 495.11 291.82C495.95 286.93 495.39 286.7 471.2 286.7C453.19 286.7 444.47 287.63 439.97 290.43C434.63 293.45 433.78 296.02 433.78 308.6Z" id="d1T63iJxRh"></path><path d="M509.74 333.3L537.87 333.3L566 333.3C566 329.81 566 327.86 566 327.48C566 321.88 565.44 321.65 544.9 321.65C528.02 321.65 523.8 320.95 523.8 318.15C523.8 315.36 527.74 314.66 543.5 314.66C562.63 314.66 563.19 314.43 563.19 308.83C563.19 303.24 562.63 303.01 543.5 303.01C529.71 303.01 523.8 302.08 523.8 299.98C523.8 298.11 529.71 297.18 544.06 297.18C563.19 297.18 564.6 296.72 565.44 291.82C566.28 286.7 565.72 286.7 538.15 286.7C536.26 286.7 526.79 286.7 509.74 286.7L509.74 310L509.74 333.3Z" id="bcqqf1BRZ"></path></defs><g><g><g><use xlink:href="#bd42cUbIE" opacity="1" fill="#000000" fill-opacity="1"></use><g><use xlink:href="#bd42cUbIE" opacity="1" fill-opacity="0" stroke="#000000" stroke-width="1" stroke-opacity="0"></use></g></g><g><use xlink:href="#c94RN83ab" opacity="1" fill="#000000" fill-opacity="1"></use><g><use xlink:href="#c94RN83ab" opacity="1" fill-opacity="0" stroke="#000000" stroke-width="1" stroke-opacity="0"></use></g></g><g><use xlink:href="#a1aknMxJxp" opacity="1" fill="#000000" fill-opacity="1"></use><g><use xlink:href="#a1aknMxJxp" opacity="1" fill-opacity="0" stroke="#000000" stroke-width="1" stroke-opacity="0"></use></g></g><g><use xlink:href="#a9dynMkBO" opacity="1" fill="#000000" fill-opacity="1"></use><g><use xlink:href="#a9dynMkBO" opacity="1" fill-opacity="0" stroke="#000000" stroke-width="1" stroke-opacity="0"></use></g></g><g><use xlink:href="#b73BZoCYO" opacity="1" fill="#000000" fill-opacity="1"></use><g><use xlink:href="#b73BZoCYO" opacity="1" fill-opacity="0" stroke="#000000" stroke-width="1" stroke-opacity="0"></use></g></g><g><use xlink:href="#aiXloQblu" opacity="1" fill="#000000" fill-opacity="1"></use><g><use xlink:href="#aiXloQblu" opacity="1" fill-opacity="0" stroke="#000000" stroke-width="1" stroke-opacity="0"></use></g></g><g><use xlink:href="#jKzKVa6XQ" opacity="1" fill="#ffffff" fill-opacity="1"></use><g><use xlink:href="#jKzKVa6XQ" opacity="1" fill-opacity="0" stroke="#000000" stroke-width="1" stroke-opacity="0"></use></g></g><g><use xlink:href="#cNKDDVzhb" opacity="1" fill="#ffffff" fill-opacity="1"></use><g><use xlink:href="#cNKDDVzhb" opacity="1" fill-opacity="0" stroke="#000000" stroke-width="1" stroke-opacity="0"></use></g></g><g><use xlink:href="#aaUWsXG8Y" opacity="1" fill="#ffffff" fill-opacity="1"></use><g><use xlink:href="#aaUWsXG8Y" opacity="1" fill-opacity="0" stroke="#000000" stroke-width="1" stroke-opacity="0"></use></g></g><g><use xlink:href="#d9MkLlwp6" opacity="1" fill="#ffffff" fill-opacity="1"></use><g><use xlink:href="#d9MkLlwp6" opacity="1" fill-opacity="0" stroke="#000000" stroke-width="1" stroke-opacity="0"></use></g></g><g><use xlink:href="#b7Oi8iHEv" opacity="1" fill="#ffffff" fill-opacity="1"></use><g><use xlink:href="#b7Oi8iHEv" opacity="1" fill-opacity="0" stroke="#000000" stroke-width="1" stroke-opacity="0"></use></g></g><g><use xlink:href="#d1T63iJxRh" opacity="1" fill="#ffffff" fill-opacity="1"></use><g><use xlink:href="#d1T63iJxRh" opacity="1" fill-opacity="0" stroke="#000000" stroke-width="1" stroke-opacity="0"></use></g></g><g><use xlink:href="#bcqqf1BRZ" opacity="1" fill="#ffffff" fill-opacity="1"></use><g><use xlink:href="#bcqqf1BRZ" opacity="1" fill-opacity="0" stroke="#000000" stroke-width="1" stroke-opacity="0"></use></g></g></g></g></svg>